SplineFontDB: 3.2
FontName: LegacyComputing
FullName: LegacyComputing
FamilyName: LegacyComputing
Weight: Regular
Copyright: Copyright (c) 2020
UComments: "2020-4-11: Created with FontForge (http://fontforge.org)"
Version: 001.000
ItalicAngle: 0
UnderlinePosition: -100
UnderlineWidth: 50
Ascent: 800
Descent: 200
InvalidEm: 0
LayerCount: 2
Layer: 0 0 "Back" 1
Layer: 1 0 "Fore" 0
XUID: [1021 761 -1273504381 15961320]
StyleMap: 0x0000
FSType: 0
OS2Version: 0
OS2_WeightWidthSlopeOnly: 0
OS2_UseTypoMetrics: 1
CreationTime: 1586639695
ModificationTime: 1654610211
PfmFamily: 17
TTFWeight: 400
TTFWidth: 5
LineGap: 90
VLineGap: 90
OS2TypoAscent: 0
OS2TypoAOffset: 1
OS2TypoDescent: 0
OS2TypoDOffset: 1
OS2TypoLinegap: 90
OS2WinAscent: 0
OS2WinAOffset: 1
OS2WinDescent: 0
OS2WinDOffset: 1
HheadAscent: 0
HheadAOffset: 1
HheadDescent: 0
HheadDOffset: 1
OS2Vendor: 'PfEd'
MarkAttachClasses: 1
DEI: 91125

StartChar: u1FB00
Encoding: 129792 129792 0
Width: 600
VWidth: -128
Flags: W
HStem: 404 379<0 300>
VStem: 0 300<404 783>
LayerCount: 2
Fore
SplineSet
0 783 m 1
 300 783 l 1
 300 404 l 5
 0 404 l 5
 0 783 l 1
EndSplineSet
EndChar

StartChar: u1FB01
Encoding: 129793 129793 1
Width: 600
VWidth: -128
Flags: W
HStem: 404 379<300 600>
VStem: 300 300<404 783>
LayerCount: 2
Fore
SplineSet
300 783 m 1
 600 783 l 1
 600 404 l 5
 300 404 l 5
 300 783 l 1
EndSplineSet
EndChar

StartChar: u1FB02
Encoding: 129794 129794 2
Width: 600
VWidth: -128
Flags: W
HStem: 404 379<0 600>
LayerCount: 2
Fore
SplineSet
0 783 m 1
 600 783 l 1
 600 404 l 5
 0 404 l 5
 0 783 l 1
EndSplineSet
EndChar

StartChar: u1FBA0
Encoding: 129952 129952 3
Width: 600
VWidth: 0
Flags: W
LayerCount: 2
Fore
SplineSet
300 600 m 25
 340 560 l 25
 40 260 l 29
 0 300 l 25
 300 600 l 25
EndSplineSet
Validated: 1
EndChar

StartChar: u1FBA1
Encoding: 129953 129953 4
Width: 600
VWidth: 0
Flags: W
LayerCount: 2
Fore
SplineSet
300 600 m 25
 600 300 l 25
 560 260 l 29
 260 560 l 25
 300 600 l 25
EndSplineSet
Validated: 1
EndChar

StartChar: u1FBA2
Encoding: 129954 129954 5
Width: 600
VWidth: 0
Flags: W
HStem: 0 21G<280 320>
LayerCount: 2
Fore
SplineSet
300 0 m 25
 0 300 l 25
 40 340 l 25
 340 40 l 29
 300 0 l 25
EndSplineSet
Validated: 1
EndChar

StartChar: u1FBA3
Encoding: 129955 129955 6
Width: 600
VWidth: 0
Flags: W
HStem: 0 21G<280 320>
LayerCount: 2
Fore
SplineSet
300 0 m 25
 260 40 l 29
 560 340 l 25
 600 300 l 25
 300 0 l 25
EndSplineSet
Validated: 1
EndChar

StartChar: u1FBA4
Encoding: 129956 129956 7
Width: 600
VWidth: 0
Flags: W
HStem: 0 21G<280 320>
LayerCount: 2
Fore
SplineSet
300 600 m 25
 340 560 l 17
 80 300 l 5
 340 40 l 1
 300 0 l 1
 0 300 l 1
 300 600 l 25
EndSplineSet
Validated: 1
EndChar

StartChar: u1FBA5
Encoding: 129957 129957 8
Width: 600
VWidth: 0
Flags: W
HStem: 0 21G<280 320>
LayerCount: 2
Fore
SplineSet
300 600 m 25
 600 300 l 1
 300 0 l 1
 260 40 l 5
 520 300 l 1
 260 560 l 9
 300 600 l 25
EndSplineSet
Validated: 1
EndChar

StartChar: u1FBA6
Encoding: 129958 129958 9
Width: 600
VWidth: 0
Flags: W
HStem: 0 21G<280 320>
LayerCount: 2
Fore
SplineSet
0 300 m 25
 40 340 l 17
 300 80 l 5
 560 340 l 1
 600 300 l 1
 300 0 l 1
 0 300 l 25
EndSplineSet
Validated: 1
EndChar

StartChar: u1FBA7
Encoding: 129959 129959 10
Width: 600
VWidth: 0
Flags: W
LayerCount: 2
Fore
SplineSet
0 300 m 25
 300 600 l 1
 600 300 l 1
 560 260 l 1
 300 520 l 1
 40 260 l 13
 0 300 l 25
EndSplineSet
Validated: 1
EndChar

StartChar: u1FBA8
Encoding: 129960 129960 11
Width: 600
VWidth: 0
Flags: W
HStem: 0 21G<280 320>
LayerCount: 2
Fore
SplineSet
560 340 m 25
 600 300 l 25
 300 0 l 25
 260 40 l 25
 560 340 l 25
300 600 m 25
 340 560 l 29
 40 260 l 29
 0 300 l 25
 300 600 l 25
EndSplineSet
Validated: 1
EndChar

StartChar: u1FBA9
Encoding: 129961 129961 12
Width: 600
VWidth: 0
Flags: W
HStem: 0 21G<280 320>
LayerCount: 2
Fore
SplineSet
560 260 m 25
 260 560 l 29
 300 600 l 25
 600 300 l 25
 560 260 l 25
300 0 m 25
 0 300 l 25
 40 340 l 25
 340 40 l 25
 300 0 l 25
EndSplineSet
Validated: 1
EndChar

StartChar: u1FBAA
Encoding: 129962 129962 13
Width: 600
VWidth: 0
Flags: W
HStem: 0 21G<280 320>
LayerCount: 2
Fore
SplineSet
300 0 m 1
 0 300 l 25
 40 340 l 5
 300 80 l 1
 520 300 l 1
 260 560 l 1
 300 600 l 1
 600 300 l 9
 300 0 l 1
EndSplineSet
Validated: 1
EndChar

StartChar: u1FBAB
Encoding: 129963 129963 14
Width: 600
VWidth: 0
Flags: W
HStem: 0 21G<280 320>
LayerCount: 2
Fore
SplineSet
300 0 m 1
 0 300 l 17
 300 600 l 1
 340 560 l 1
 80 300 l 5
 300 80 l 1
 560 340 l 1
 600 300 l 25
 300 0 l 1
EndSplineSet
Validated: 1
EndChar

StartChar: u1FBAC
Encoding: 129964 129964 15
Width: 600
VWidth: 0
Flags: W
HStem: 0 21G<280 320>
LayerCount: 2
Fore
SplineSet
300 600 m 1
 600 300 l 17
 300 0 l 1
 260 40 l 1
 520 300 l 1
 300 520 l 1
 40 260 l 5
 0 300 l 25
 300 600 l 1
EndSplineSet
Validated: 1
EndChar

StartChar: u1FBAD
Encoding: 129965 129965 16
Width: 600
VWidth: 0
Flags: W
HStem: 0 21G<280 325>
LayerCount: 2
Fore
SplineSet
0 300 m 1
 300 600 l 17
 600 300 l 1
 560 260 l 5
 300 520 l 1
 80 300 l 1
 350 40 l 1
 300 0 l 25
 0 300 l 1
EndSplineSet
Validated: 1
EndChar

StartChar: u1FBAE
Encoding: 129966 129966 17
Width: 600
VWidth: 0
Flags: W
HStem: 0 21G<280 320>
LayerCount: 2
Fore
SplineSet
300 80 m 1
 520 300 l 1
 300 520 l 5
 80 300 l 1
 300 80 l 1
600 300 m 1
 300 0 l 1
 0 300 l 1
 300 600 l 1
 600 300 l 1
EndSplineSet
Validated: 1
EndChar

StartChar: u1FBB0
Encoding: 129968 129968 18
Width: 600
VWidth: 0
Flags: W
LayerCount: 2
Fore
SplineSet
141 41 m 5
 40 734 l 1
 567 257 l 1
 260 324 l 1
 141 41 l 5
EndSplineSet
Validated: 1
EndChar

StartChar: u1FB03
Encoding: 129795 129795 19
Width: 600
VWidth: -81
Flags: W
HStem: 70 380<0 300>
VStem: 0 300<70 450>
LayerCount: 2
Fore
SplineSet
0 450 m 1
 300 450 l 1
 300 70 l 5
 0 70 l 5
 0 450 l 1
EndSplineSet
EndChar

StartChar: u1FB04
Encoding: 129796 129796 20
Width: 600
VWidth: -105
Flags: W
VStem: 0 300<46 807>
LayerCount: 2
Fore
SplineSet
0 807 m 1
 300 807 l 1
 300 46 l 5
 0 46 l 5
 0 807 l 1
EndSplineSet
EndChar

StartChar: u1FB05
Encoding: 129797 129797 21
Width: 600
VWidth: -105
Flags: W
HStem: 46 381<0 299> 427 380<301 600>
VStem: 0 300<46 426> 300 300<428 807>
LayerCount: 2
Fore
SplineSet
300 807 m 1x50
 600 807 l 1
 600 427 l 1
 301 427 l 1x50
 300 426 l 1
 300 46 l 5
 0 46 l 5
 0 427 l 1
 299 427 l 1xa0
 300 428 l 1
 300 807 l 1x50
EndSplineSet
EndChar

StartChar: u1FB06
Encoding: 129798 129798 22
Width: 600
VWidth: -105
Flags: W
HStem: 427 380<300 600>
VStem: 0 300<46 427>
LayerCount: 2
Fore
SplineSet
0 807 m 1
 600 807 l 1
 600 427 l 5
 300 427 l 5
 300 46 l 1
 0 46 l 1
 0 807 l 1
EndSplineSet
EndChar

StartChar: u1FB07
Encoding: 129799 129799 23
Width: 600
VWidth: -81
Flags: W
HStem: 70 380<300 600>
VStem: 300 300<70 450>
LayerCount: 2
Fore
SplineSet
300 450 m 5
 600 450 l 5
 600 70 l 1
 300 70 l 1
 300 450 l 5
EndSplineSet
EndChar

StartChar: u1FB08
Encoding: 129800 129800 24
Width: 600
VWidth: -105
Flags: W
HStem: 46 381<301 600> 427 380<0 299>
VStem: 0 300<428 807> 300 300<46 426>
LayerCount: 2
Fore
SplineSet
300 46 m 1x90
 300 426 l 5x90
 299 427 l 5
 0 427 l 5
 0 807 l 1
 300 807 l 1
 300 428 l 5x60
 301 427 l 5
 600 427 l 5
 600 46 l 1
 300 46 l 1x90
EndSplineSet
EndChar

StartChar: u1FB09
Encoding: 129801 129801 25
Width: 600
VWidth: -105
Flags: W
VStem: 300 300<46 807>
LayerCount: 2
Fore
SplineSet
300 807 m 1
 600 807 l 1
 600 46 l 5
 300 46 l 5
 300 807 l 1
EndSplineSet
EndChar

StartChar: u1FB0A
Encoding: 129802 129802 26
Width: 600
VWidth: -105
Flags: W
HStem: 427 380<0 300>
VStem: 300 300<46 427>
LayerCount: 2
Fore
SplineSet
0 807 m 1
 600 807 l 1
 600 46 l 5
 300 46 l 5
 300 427 l 1
 0 427 l 1
 0 807 l 1
EndSplineSet
EndChar

StartChar: u1FB0B
Encoding: 129803 129803 27
Width: 600
VWidth: -81
Flags: W
HStem: 70 380<0 600>
LayerCount: 2
Fore
SplineSet
0 450 m 5
 600 450 l 5
 600 70 l 1
 0 70 l 1
 0 450 l 5
EndSplineSet
EndChar

StartChar: u1FB0C
Encoding: 129804 129804 28
Width: 600
VWidth: -105
Flags: W
HStem: 46 381<300 600>
VStem: 0 300<427 807>
LayerCount: 2
Fore
SplineSet
0 807 m 1
 300 807 l 1
 300 427 l 5
 600 427 l 5
 600 46 l 1
 0 46 l 1
 0 807 l 1
EndSplineSet
EndChar

StartChar: u1FB0D
Encoding: 129805 129805 29
Width: 600
VWidth: -105
Flags: W
HStem: 46 381<0 300>
VStem: 300 300<427 807>
LayerCount: 2
Fore
SplineSet
0 427 m 5
 300 427 l 5
 300 807 l 1
 600 807 l 1
 600 46 l 1
 0 46 l 1
 0 427 l 5
EndSplineSet
EndChar

StartChar: u1FB0E
Encoding: 129806 129806 30
Width: 600
VWidth: -105
Flags: W
VStem: 0 600<46 807>
LayerCount: 2
Fore
SplineSet
0 807 m 1
 600 807 l 1
 600 46 l 5
 0 46 l 5
 0 807 l 1
EndSplineSet
EndChar

StartChar: u1FB0F
Encoding: 129807 129807 31
Width: 600
VWidth: -35
Flags: W
HStem: -263 379<0 300>
VStem: 0 300<-263 116>
LayerCount: 2
Fore
SplineSet
0 116 m 1
 300 116 l 1
 300 -263 l 5
 0 -263 l 5
 0 116 l 1
EndSplineSet
EndChar

StartChar: u1FB10
Encoding: 129808 129808 32
Width: 600
VWidth: -81
Flags: W
HStem: -310 380<0 300> 450 380<0 300>
VStem: 0 300<-310 70 450 830>
LayerCount: 2
Fore
SplineSet
0 70 m 1
 300 70 l 1
 300 -310 l 1
 0 -310 l 1
 0 70 l 1
0 830 m 1
 300 830 l 1
 300 450 l 5
 0 450 l 5
 0 830 l 1
EndSplineSet
EndChar

StartChar: u1FB11
Encoding: 129809 129809 33
Width: 600
VWidth: -81
Flags: W
HStem: -310 380<0 300> 450 380<300 600>
VStem: 0 300<-310 70> 300 300<450 830>
LayerCount: 2
Fore
SplineSet
300 830 m 1xd0
 600 830 l 1
 600 450 l 5
 300 450 l 5
 300 830 l 1xd0
0 70 m 1xe0
 300 70 l 1
 300 -310 l 1
 0 -310 l 1
 0 70 l 1xe0
EndSplineSet
EndChar

StartChar: u1FB12
Encoding: 129810 129810 34
Width: 600
VWidth: -81
Flags: W
HStem: -310 380<0 300> 450 380<0 600>
VStem: 0 300<-310 70>
LayerCount: 2
Fore
SplineSet
0 70 m 1
 300 70 l 1
 300 -310 l 1
 0 -310 l 1
 0 70 l 1
0 830 m 1
 600 830 l 1
 600 450 l 5
 0 450 l 5
 0 830 l 1
EndSplineSet
EndChar

StartChar: u1FB13
Encoding: 129811 129811 35
Width: 600
VWidth: -58
Flags: W
VStem: 0 300<-287 474>
LayerCount: 2
Fore
SplineSet
0 474 m 5
 300 474 l 5
 300 -287 l 1
 0 -287 l 1
 0 474 l 5
EndSplineSet
EndChar

StartChar: u1FB14
Encoding: 129812 129812 36
Width: 600
VWidth: -81
Flags: W
HStem: 450 380<301 600>
VStem: 0 300<-310 449> 300 300<452 830>
LayerCount: 2
Fore
SplineSet
300 830 m 1xa0
 600 830 l 1
 600 450 l 1xa0
 301 450 l 1
 300 449 l 1
 300 -310 l 5
 0 -310 l 5
 0 450 l 1xc0
 299 450 l 1
 300 452 l 1
 300 830 l 1xa0
EndSplineSet
EndChar

StartChar: u1FB15
Encoding: 129813 129813 37
Width: 600
VWidth: -81
Flags: W
HStem: 450 380<300 600>
VStem: 0 300<-310 450>
LayerCount: 2
Fore
SplineSet
0 830 m 1
 600 830 l 1
 600 450 l 5
 300 450 l 5
 300 -310 l 1
 0 -310 l 1
 0 830 l 1
EndSplineSet
EndChar

StartChar: u1FB16
Encoding: 129814 129814 38
Width: 600
VWidth: -58
Flags: W
HStem: -287 380<0 299> 93 381<301 600>
VStem: 0 300<-287 92> 300 300<94 474>
LayerCount: 2
Fore
SplineSet
300 474 m 1x50
 600 474 l 1
 600 93 l 1
 301 93 l 1x50
 300 92 l 1
 300 -287 l 5
 0 -287 l 5
 0 93 l 1
 299 93 l 1xa0
 300 94 l 1
 300 474 l 1x50
EndSplineSet
EndChar

StartChar: u1FB17
Encoding: 129815 129815 39
Width: 600
VWidth: -81
Flags: W
HStem: -310 380<0 299> 70 380<301 600> 450 380<0 299>
VStem: 0 300<-310 68 452 830> 300 300<71 449>
LayerCount: 2
Fore
SplineSet
0 830 m 1xb0
 300 830 l 1
 300 452 l 5xb0
 301 450 l 5
 600 450 l 5
 600 70 l 1
 301 70 l 1x48
 300 68 l 1
 300 -310 l 1
 0 -310 l 1
 0 70 l 1x90
 299 70 l 1
 300 71 l 1
 300 449 l 5x88
 299 450 l 5
 0 450 l 5
 0 830 l 1xb0
EndSplineSet
EndChar

StartChar: u1FB18
Encoding: 129816 129816 40
Width: 600
VWidth: -81
Flags: W
HStem: -310 378<0 299>
VStem: 0 300<-310 67> 300 300<70 830>
LayerCount: 2
Fore
SplineSet
300 830 m 1xa0
 600 830 l 1
 600 68 l 1xa0
 301 68 l 1
 300 67 l 1
 300 -310 l 5
 0 -310 l 5
 0 68 l 1xc0
 299 68 l 1
 300 70 l 1
 300 830 l 1xa0
EndSplineSet
EndChar

StartChar: u1FB19
Encoding: 129817 129817 41
Width: 600
VWidth: -81
Flags: W
HStem: -310 380<0 299> 450 380<0 300>
VStem: 0 300<-310 68> 300 300<71 450>
LayerCount: 2
Fore
SplineSet
0 830 m 1xe0
 600 830 l 1
 600 70 l 1xd0
 301 70 l 1
 300 68 l 1
 300 -310 l 5
 0 -310 l 5
 0 70 l 1xe0
 299 70 l 1
 300 71 l 1
 300 450 l 1xd0
 0 450 l 1
 0 830 l 1xe0
EndSplineSet
EndChar

StartChar: u1FB1A
Encoding: 129818 129818 42
Width: 600
VWidth: -58
Flags: W
HStem: 93 381<300 600>
VStem: 0 300<-287 93>
LayerCount: 2
Fore
SplineSet
0 474 m 1
 600 474 l 1
 600 93 l 1
 300 93 l 1
 300 -287 l 5
 0 -287 l 5
 0 474 l 1
EndSplineSet
EndChar

StartChar: u1FB1B
Encoding: 129819 129819 43
Width: 600
VWidth: -81
Flags: W
HStem: 70 380<300 600>
VStem: 0 300<-310 70 450 830>
LayerCount: 2
Fore
SplineSet
0 830 m 1
 300 830 l 1
 300 450 l 5
 600 450 l 5
 600 70 l 1
 300 70 l 1
 300 -310 l 1
 0 -310 l 1
 0 830 l 1
EndSplineSet
EndChar

StartChar: u1FB1C
Encoding: 129820 129820 44
Width: 600
VWidth: -81
Flags: W
VStem: 0 300<-310 70> 300 300<450 830>
LayerCount: 2
Fore
SplineSet
0 450 m 5x80
 300 450 l 5
 300 830 l 1
 600 830 l 1
 600 70 l 1x40
 300 70 l 1
 300 -310 l 1
 0 -310 l 1
 0 450 l 5x80
EndSplineSet
EndChar

StartChar: u1FB1D
Encoding: 129821 129821 45
Width: 600
VWidth: -81
Flags: W
VStem: 0 600<70 830> 0 300<-310 70>
LayerCount: 2
Fore
SplineSet
0 830 m 1x80
 600 830 l 1
 600 70 l 5x80
 300 70 l 5
 300 -310 l 1
 0 -310 l 1x40
 0 830 l 1x80
EndSplineSet
EndChar

StartChar: u1FB1E
Encoding: 129822 129822 46
Width: 600
VWidth: -35
Flags: W
HStem: -263 379<300 600>
VStem: 300 300<-263 116>
LayerCount: 2
Fore
SplineSet
300 116 m 5
 600 116 l 5
 600 -263 l 1
 300 -263 l 1
 300 116 l 5
EndSplineSet
EndChar

StartChar: u1FB1F
Encoding: 129823 129823 47
Width: 600
VWidth: -81
Flags: W
HStem: -310 380<300 600> 450 380<0 300>
VStem: 0 300<450 830> 300 300<-310 70>
LayerCount: 2
Fore
SplineSet
0 830 m 1xe0
 300 830 l 1
 300 450 l 1
 0 450 l 1
 0 830 l 1xe0
300 70 m 1xd0
 600 70 l 1
 600 -310 l 5
 300 -310 l 5
 300 70 l 1xd0
EndSplineSet
EndChar

StartChar: u1FB20
Encoding: 129824 129824 48
Width: 600
VWidth: -81
Flags: W
HStem: -310 380<300 600> 450 380<300 600>
VStem: 300 300<-310 70 450 830>
LayerCount: 2
Fore
SplineSet
300 830 m 1
 600 830 l 1
 600 450 l 5
 300 450 l 5
 300 830 l 1
300 70 m 1
 600 70 l 1
 600 -310 l 1
 300 -310 l 1
 300 70 l 1
EndSplineSet
EndChar

StartChar: u1FB21
Encoding: 129825 129825 49
Width: 600
VWidth: -81
Flags: W
HStem: -310 380<300 600> 450 380<0 600>
VStem: 300 300<-310 70>
LayerCount: 2
Fore
SplineSet
300 70 m 1
 600 70 l 1
 600 -310 l 1
 300 -310 l 1
 300 70 l 1
0 830 m 1
 600 830 l 1
 600 450 l 5
 0 450 l 5
 0 830 l 1
EndSplineSet
EndChar

StartChar: u1FB22
Encoding: 129826 129826 50
Width: 600
VWidth: -58
Flags: W
HStem: -287 380<301 600> 93 381<0 299>
VStem: 0 300<94 474> 300 300<-287 92>
LayerCount: 2
Fore
SplineSet
300 -287 m 1x90
 300 92 l 1x90
 299 93 l 1
 0 93 l 1
 0 474 l 5
 300 474 l 5
 300 94 l 1x60
 301 93 l 1
 600 93 l 1
 600 -287 l 1
 300 -287 l 1x90
EndSplineSet
EndChar

StartChar: u1FB23
Encoding: 129827 129827 51
Width: 600
VWidth: -81
Flags: W
HStem: -310 380<301 600>
VStem: 0 300<71 830> 300 300<-310 68>
LayerCount: 2
Fore
SplineSet
300 -310 m 1xa0
 300 68 l 5xa0
 299 70 l 5
 0 70 l 5
 0 830 l 1
 300 830 l 1
 300 71 l 5xc0
 301 70 l 5
 600 70 l 5
 600 -310 l 1
 300 -310 l 1xa0
EndSplineSet
EndChar

StartChar: u1FB24
Encoding: 129828 129828 52
Width: 600
VWidth: -81
Flags: W
HStem: -310 378<0 299> 68 382<301 600> 450 380<0 299>
VStem: 0 300<-310 67 452 830> 300 300<70 449>
LayerCount: 2
Fore
SplineSet
0 -310 m 1x90
 0 68 l 1x90
 299 68 l 1
 300 70 l 1
 300 449 l 5x88
 299 450 l 5
 0 450 l 5
 0 830 l 1
 300 830 l 1
 300 452 l 5xb0
 301 450 l 5
 600 450 l 5
 600 68 l 1
 301 68 l 1x48
 300 67 l 1
 300 -310 l 1
 0 -310 l 1x90
EndSplineSet
EndChar

StartChar: u1FB25
Encoding: 129829 129829 53
Width: 600
VWidth: -81
Flags: W
HStem: -310 380<301 600> 450 380<300 600>
VStem: 0 300<71 450> 300 300<-310 68>
LayerCount: 2
Fore
SplineSet
600 830 m 1xd0
 600 450 l 5xd0
 300 450 l 5
 300 71 l 1xe0
 301 70 l 1
 600 70 l 1
 600 -310 l 1
 300 -310 l 1
 300 68 l 1xd0
 299 70 l 1
 0 70 l 1
 0 830 l 1xe0
 600 830 l 1xd0
EndSplineSet
EndChar

StartChar: u1FB26
Encoding: 129830 129830 54
Width: 600
VWidth: -58
Flags: W
VStem: 300 300<-287 474>
LayerCount: 2
Fore
SplineSet
300 474 m 1
 600 474 l 1
 600 -287 l 5
 300 -287 l 5
 300 474 l 1
EndSplineSet
EndChar

StartChar: u1FB27
Encoding: 129831 129831 55
Width: 600
VWidth: -81
Flags: W
HStem: 450 380<0 299>
VStem: 0 300<452 830> 300 300<-310 449>
LayerCount: 2
Fore
SplineSet
300 -310 m 1xa0
 300 449 l 5xa0
 299 450 l 5
 0 450 l 5
 0 830 l 1
 300 830 l 1
 300 452 l 5xc0
 301 450 l 5
 600 450 l 5
 600 -310 l 1
 300 -310 l 1xa0
EndSplineSet
EndChar

StartChar: u1FB28
Encoding: 129832 129832 56
Width: 600
VWidth: -81
Flags: W
HStem: 450 380<0 300>
VStem: 300 300<-310 450>
LayerCount: 2
Fore
SplineSet
0 830 m 1
 600 830 l 1
 600 -310 l 1
 300 -310 l 1
 300 450 l 5
 0 450 l 5
 0 830 l 1
EndSplineSet
EndChar

StartChar: u1FB29
Encoding: 129833 129833 57
Width: 600
VWidth: -58
Flags: W
HStem: 93 381<0 300>
VStem: 300 300<-287 93>
LayerCount: 2
Fore
SplineSet
0 474 m 5
 600 474 l 5
 600 -287 l 1
 300 -287 l 1
 300 93 l 1
 0 93 l 1
 0 474 l 5
EndSplineSet
EndChar

StartChar: u1FB2A
Encoding: 129834 129834 58
Width: 600
VWidth: -81
Flags: W
VStem: 0 300<450 830> 300 300<-310 70>
LayerCount: 2
Fore
SplineSet
0 70 m 1x80
 0 830 l 1
 300 830 l 1
 300 450 l 5x80
 600 450 l 5
 600 -310 l 1
 300 -310 l 1
 300 70 l 1x40
 0 70 l 1x80
EndSplineSet
EndChar

StartChar: u1FB2B
Encoding: 129835 129835 59
Width: 600
VWidth: -81
Flags: W
HStem: 70 380<0 300>
VStem: 300 300<-310 70 450 830>
LayerCount: 2
Fore
SplineSet
600 830 m 1
 600 -310 l 1
 300 -310 l 1
 300 70 l 1
 0 70 l 1
 0 450 l 5
 300 450 l 5
 300 830 l 1
 600 830 l 1
EndSplineSet
EndChar

StartChar: u1FB2C
Encoding: 129836 129836 60
Width: 600
VWidth: -81
Flags: W
VStem: 0 600<70 830> 300 300<-310 70>
LayerCount: 2
Fore
SplineSet
0 830 m 1x80
 600 830 l 1x80
 600 -310 l 1
 300 -310 l 1
 300 70 l 5x40
 0 70 l 5
 0 830 l 1x80
EndSplineSet
EndChar

StartChar: u1FB2D
Encoding: 129837 129837 61
Width: 600
VWidth: -35
Flags: W
HStem: -263 379<0 600>
LayerCount: 2
Fore
SplineSet
0 116 m 5
 600 116 l 5
 600 -263 l 1
 0 -263 l 1
 0 116 l 5
EndSplineSet
EndChar

StartChar: u1FB2E
Encoding: 129838 129838 62
Width: 600
VWidth: -81
Flags: W
HStem: -310 380<0 600> 450 380<0 300>
VStem: 0 300<450 830>
LayerCount: 2
Fore
SplineSet
0 830 m 1
 300 830 l 1
 300 450 l 5
 0 450 l 1
 0 830 l 1
0 70 m 1
 600 70 l 1
 600 -310 l 1
 0 -310 l 1
 0 70 l 1
EndSplineSet
EndChar

StartChar: u1FB2F
Encoding: 129839 129839 63
Width: 600
VWidth: -81
Flags: W
HStem: -310 380<0 600> 450 380<300 600>
VStem: 300 300<450 830>
LayerCount: 2
Fore
SplineSet
300 830 m 1
 600 830 l 1
 600 450 l 1
 300 450 l 1
 300 830 l 1
0 70 m 1
 600 70 l 1
 600 -310 l 5
 0 -310 l 5
 0 70 l 1
EndSplineSet
EndChar

StartChar: u1FB30
Encoding: 129840 129840 64
Width: 600
VWidth: -81
Flags: W
HStem: -310 380<0 600> 450 380<0 600>
VStem: 0 600<-310 70 450 830>
LayerCount: 2
Fore
SplineSet
0 830 m 1
 600 830 l 1
 600 450 l 1
 0 450 l 1
 0 830 l 1
0 70 m 5
 600 70 l 5
 600 -310 l 1
 0 -310 l 1
 0 70 l 5
EndSplineSet
EndChar

StartChar: u1FB31
Encoding: 129841 129841 65
Width: 600
VWidth: -58
Flags: W
HStem: -287 380<300 600>
VStem: 0 300<93 474>
LayerCount: 2
Fore
SplineSet
0 474 m 5
 300 474 l 5
 300 93 l 1
 600 93 l 1
 600 -287 l 1
 0 -287 l 1
 0 474 l 5
EndSplineSet
EndChar

StartChar: u1FB32
Encoding: 129842 129842 66
Width: 600
VWidth: -81
Flags: W
HStem: -310 380<300 600>
VStem: 0 300<70 830>
LayerCount: 2
Fore
SplineSet
0 830 m 1
 300 830 l 1
 300 70 l 5
 600 70 l 5
 600 -310 l 1
 0 -310 l 1
 0 830 l 1
EndSplineSet
EndChar

StartChar: u1FB33
Encoding: 129843 129843 67
Width: 600
VWidth: -81
Flags: W
HStem: -310 380<300 600> 449 381<301 600>
VStem: 0 300<70 448> 300 300<450 830>
LayerCount: 2
Fore
SplineSet
600 -310 m 1xd0
 0 -310 l 1
 0 449 l 5xe0
 299 449 l 5
 300 450 l 5
 300 830 l 1
 600 830 l 1
 600 449 l 5xd0
 301 449 l 5
 300 448 l 5
 300 70 l 1xe0
 600 70 l 1
 600 -310 l 1xd0
EndSplineSet
EndChar

StartChar: u1FB34
Encoding: 129844 129844 68
Width: 600
VWidth: -81
Flags: W
HStem: -310 380<300 600> 450 380<300 600>
VStem: 0 600<-310 70 450 830> 0 300<70 450>
LayerCount: 2
Fore
SplineSet
0 830 m 1xe0
 600 830 l 1
 600 450 l 5xe0
 300 450 l 5
 300 70 l 1xd0
 600 70 l 1
 600 -310 l 1
 0 -310 l 1
 0 830 l 1xe0
EndSplineSet
EndChar

StartChar: u1FB35
Encoding: 129845 129845 69
Width: 600
VWidth: -58
Flags: W
HStem: -287 380<0 300>
VStem: 300 300<93 474>
LayerCount: 2
Fore
SplineSet
0 93 m 1
 300 93 l 1
 300 474 l 5
 600 474 l 5
 600 -287 l 1
 0 -287 l 1
 0 93 l 1
EndSplineSet
EndChar

StartChar: u1FB36
Encoding: 129846 129846 70
Width: 600
VWidth: -81
Flags: W
HStem: -310 380<0 300> 450 380<0 299>
VStem: 0 300<452 830> 300 300<70 449>
LayerCount: 2
Fore
SplineSet
0 -310 m 1xe0
 0 70 l 1xe0
 300 70 l 1
 300 449 l 5xd0
 299 450 l 5
 0 450 l 5
 0 830 l 1
 300 830 l 1
 300 452 l 5xe0
 301 450 l 5
 600 450 l 5
 600 -310 l 1xd0
 0 -310 l 1xe0
EndSplineSet
EndChar

StartChar: u1FB37
Encoding: 129847 129847 71
Width: 600
VWidth: -81
Flags: W
HStem: -310 380<0 300>
VStem: 300 300<70 830>
LayerCount: 2
Fore
SplineSet
0 70 m 5
 300 70 l 5
 300 830 l 1
 600 830 l 1
 600 -310 l 1
 0 -310 l 1
 0 70 l 5
EndSplineSet
EndChar

StartChar: u1FB38
Encoding: 129848 129848 72
Width: 600
VWidth: -81
Flags: W
HStem: -310 380<0 300> 450 380<0 300>
VStem: 0 600<-310 70 450 830> 300 300<70 450>
LayerCount: 2
Fore
SplineSet
600 830 m 1xe0
 600 -310 l 1
 0 -310 l 1
 0 70 l 1xe0
 300 70 l 1
 300 450 l 5xd0
 0 450 l 5
 0 830 l 1
 600 830 l 1xe0
EndSplineSet
EndChar

StartChar: u1FB39
Encoding: 129849 129849 73
Width: 600
VWidth: -58
Flags: W
VStem: 0 600<-287 474>
LayerCount: 2
Fore
SplineSet
0 474 m 5
 600 474 l 5
 600 -287 l 1
 0 -287 l 1
 0 474 l 5
EndSplineSet
EndChar

StartChar: u1FB3A
Encoding: 129850 129850 74
Width: 600
VWidth: -81
Flags: W
VStem: 0 600<-310 450> 0 300<450 830>
LayerCount: 2
Fore
SplineSet
0 830 m 1x40
 300 830 l 1
 300 450 l 5x40
 600 450 l 5
 600 -310 l 1
 0 -310 l 1x80
 0 830 l 1x40
EndSplineSet
EndChar

StartChar: u1FB3B
Encoding: 129851 129851 75
Width: 600
VWidth: -81
Flags: W
VStem: 0 600<-310 450> 300 300<450 830>
LayerCount: 2
Fore
SplineSet
0 450 m 5x80
 300 450 l 5
 300 830 l 1
 600 830 l 1x40
 600 -310 l 1
 0 -310 l 1
 0 450 l 5x80
EndSplineSet
EndChar

StartChar: u1FBAF
Encoding: 129967 129967 76
Width: 600
VWidth: 0
Flags: W
HStem: 380 40<0 260 340 600>
VStem: 260 80<100 380 420 700>
LayerCount: 2
Fore
SplineSet
0 420 m 5
 260 420 l 5
 260 700 l 5
 340 700 l 5
 340 420 l 5
 600 420 l 5
 600 380 l 5
 340 380 l 5
 340 100 l 5
 260 100 l 5
 260 380 l 5
 0 380 l 5
 0 420 l 5
EndSplineSet
Validated: 1
EndChar

StartChar: u1FBCA
Encoding: 129994 129994 77
Width: 600
VWidth: 0
Flags: W
VStem: 60 70<-21 539> 470 70<-21 539>
LayerCount: 2
Fore
SplineSet
130 -21 m 5
 300 100 l 1
 470 -21 l 1
 470 539 l 1
 300 670 l 1
 130 539 l 5
 130 -21 l 5
60 -140 m 1
 60 580 l 1
 300 760 l 1
 540 580 l 1
 540 -140 l 1
 300 10 l 1
 60 -140 l 1
EndSplineSet
Validated: 1
EndChar

StartChar: u1FB64
Encoding: 129892 129892 78
Width: 600
VWidth: -105
Flags: W
VStem: 300 300
LayerCount: 2
Fore
SplineSet
300 807 m 29
 600 807 l 25
 600 46 l 25
 300 807 l 29
EndSplineSet
EndChar

StartChar: u1FB3C
Encoding: 129852 129852 79
Width: 600
VWidth: -35
Flags: W
VStem: 0 300
LayerCount: 2
Fore
SplineSet
0 -263 m 25
 0 116 l 25
 300 -263 l 29
 0 -263 l 25
EndSplineSet
EndChar

StartChar: u1FBF0
Encoding: 130032 130032 80
Width: 600
VWidth: 0
Flags: W
HStem: 0 80<150 450> 680 80<150 450>
VStem: 60 80<90 330 430 670> 460 80<90 330 430 670>
LayerCount: 2
Fore
SplineSet
460 670 m 1
 500 710 l 1
 540 670 l 1
 540 430 l 1
 500 390 l 1
 460 430 l 1
 460 670 l 1
60 670 m 1
 100 710 l 1
 140 670 l 1
 140 430 l 1
 100 390 l 1
 60 430 l 1
 60 670 l 1
60 330 m 1
 100 370 l 1
 140 330 l 1
 140 90 l 1
 100 50 l 1
 60 90 l 1
 60 330 l 1
460 330 m 1
 500 370 l 1
 540 330 l 1
 540 90 l 1
 500 50 l 1
 460 90 l 1
 460 330 l 1
150 760 m 1
 450 760 l 1
 490 720 l 1
 450 680 l 1
 150 680 l 5
 110 720 l 1
 150 760 l 1
150 80 m 1
 450 80 l 1
 490 40 l 1
 450 0 l 1
 150 0 l 1
 110 40 l 1
 150 80 l 1
EndSplineSet
Validated: 1
EndChar

StartChar: u1FBF1
Encoding: 130033 130033 81
Width: 600
VWidth: 0
Flags: W
VStem: 460 80<90 330 430 670>
LayerCount: 2
Fore
SplineSet
460 670 m 5
 500 710 l 5
 540 670 l 5
 540 430 l 5
 500 390 l 5
 460 430 l 5
 460 670 l 5
460 330 m 5
 500 370 l 5
 540 330 l 5
 540 90 l 5
 500 50 l 5
 460 90 l 5
 460 330 l 5
EndSplineSet
Validated: 1
EndChar

StartChar: u1FBF2
Encoding: 130034 130034 82
Width: 600
VWidth: 0
Flags: W
HStem: 0 80<150 450> 340 80<150 450> 680 80<150 450>
VStem: 60 80<90 330> 460 80<430 670>
CounterMasks: 1 e0
LayerCount: 2
Fore
SplineSet
460 670 m 1
 500 710 l 1
 540 670 l 1
 540 430 l 1
 500 390 l 1
 460 430 l 1
 460 670 l 1
60 330 m 5
 100 370 l 5
 140 330 l 5
 140 90 l 5
 100 50 l 5
 60 90 l 5
 60 330 l 5
150 420 m 5
 450 420 l 1
 490 380 l 1
 450 340 l 1
 150 340 l 5
 110 380 l 5
 150 420 l 5
150 760 m 5
 450 760 l 1
 490 720 l 1
 450 680 l 1
 150 680 l 5
 110 720 l 5
 150 760 l 5
150 80 m 5
 450 80 l 1
 490 40 l 1
 450 0 l 1
 150 0 l 5
 110 40 l 5
 150 80 l 5
EndSplineSet
Validated: 1
EndChar

StartChar: u1FBF3
Encoding: 130035 130035 83
Width: 600
VWidth: 0
Flags: W
HStem: 0 80<130 450> 340 80<130 450> 680 80<130 450>
VStem: 460 80<90 330 430 670>
CounterMasks: 1 e0
LayerCount: 2
Fore
SplineSet
460 670 m 1
 500 710 l 1
 540 670 l 1
 540 430 l 1
 500 390 l 1
 460 430 l 1
 460 670 l 1
130 420 m 5
 450 420 l 1
 490 380 l 1
 450 340 l 1
 130 340 l 5
 90 380 l 5
 130 420 l 5
460 330 m 1
 500 370 l 1
 540 330 l 1
 540 90 l 1
 500 50 l 1
 460 90 l 1
 460 330 l 1
130 760 m 5
 450 760 l 1
 490 720 l 1
 450 680 l 1
 130 680 l 5
 90 720 l 5
 130 760 l 5
130 80 m 5
 450 80 l 1
 490 40 l 1
 450 0 l 1
 130 0 l 5
 90 40 l 5
 130 80 l 5
EndSplineSet
Validated: 1
EndChar

StartChar: u1FBF4
Encoding: 130036 130036 84
Width: 600
VWidth: 0
Flags: W
HStem: 340 80<150 450>
VStem: 60 80<430 670> 460 80<90 330 430 670>
LayerCount: 2
Fore
SplineSet
460 670 m 1
 500 710 l 1
 540 670 l 1
 540 430 l 1
 500 390 l 1
 460 430 l 1
 460 670 l 1
60 670 m 5
 100 710 l 5
 140 670 l 5
 140 430 l 5
 100 390 l 5
 60 430 l 5
 60 670 l 5
150 420 m 5
 450 420 l 1
 490 380 l 1
 450 340 l 1
 150 340 l 5
 110 380 l 5
 150 420 l 5
460 330 m 1
 500 370 l 1
 540 330 l 1
 540 90 l 1
 500 50 l 1
 460 90 l 1
 460 330 l 1
EndSplineSet
Validated: 1
EndChar

StartChar: u1FBF5
Encoding: 130037 130037 85
Width: 600
VWidth: 0
Flags: W
HStem: 0 80<150 450> 340 80<150 450> 680 80<150 450>
VStem: 60 80<430 670> 460 80<90 330>
CounterMasks: 1 e0
LayerCount: 2
Fore
SplineSet
60 670 m 5
 100 710 l 5
 140 670 l 5
 140 430 l 5
 100 390 l 5
 60 430 l 5
 60 670 l 5
150 420 m 5
 450 420 l 1
 490 380 l 1
 450 340 l 1
 150 340 l 5
 110 380 l 5
 150 420 l 5
460 330 m 1
 500 370 l 1
 540 330 l 1
 540 90 l 1
 500 50 l 1
 460 90 l 1
 460 330 l 1
150 760 m 5
 450 760 l 1
 490 720 l 1
 450 680 l 1
 150 680 l 5
 110 720 l 5
 150 760 l 5
150 80 m 5
 450 80 l 1
 490 40 l 1
 450 0 l 1
 150 0 l 5
 110 40 l 5
 150 80 l 5
EndSplineSet
Validated: 1
EndChar

StartChar: u1FBF6
Encoding: 130038 130038 86
Width: 600
VWidth: 0
Flags: W
HStem: 0 80<150 450> 340 80<150 450> 680 80<150 450>
VStem: 60 80<90 330 430 670> 460 80<90 330>
CounterMasks: 1 e0
LayerCount: 2
Fore
SplineSet
60 670 m 5
 100 710 l 5
 140 670 l 5
 140 430 l 5
 100 390 l 5
 60 430 l 5
 60 670 l 5
60 330 m 5
 100 370 l 5
 140 330 l 5
 140 90 l 5
 100 50 l 5
 60 90 l 5
 60 330 l 5
150 420 m 5
 450 420 l 1
 490 380 l 1
 450 340 l 1
 150 340 l 5
 110 380 l 5
 150 420 l 5
460 330 m 1
 500 370 l 1
 540 330 l 1
 540 90 l 1
 500 50 l 1
 460 90 l 1
 460 330 l 1
150 760 m 5
 450 760 l 1
 490 720 l 1
 450 680 l 1
 150 680 l 5
 110 720 l 5
 150 760 l 5
150 80 m 5
 450 80 l 1
 490 40 l 1
 450 0 l 1
 150 0 l 5
 110 40 l 5
 150 80 l 5
EndSplineSet
Validated: 1
EndChar

StartChar: u1FBF7
Encoding: 130039 130039 87
Width: 600
VWidth: 0
Flags: W
HStem: 680 80<150 450>
VStem: 60 80<430 670> 460 80<90 330 430 670>
LayerCount: 2
Fore
SplineSet
460 670 m 1
 500 710 l 1
 540 670 l 1
 540 430 l 1
 500 390 l 1
 460 430 l 1
 460 670 l 1
60 670 m 5
 100 710 l 5
 140 670 l 5
 140 430 l 5
 100 390 l 5
 60 430 l 5
 60 670 l 5
460 330 m 1
 500 370 l 1
 540 330 l 1
 540 90 l 1
 500 50 l 1
 460 90 l 1
 460 330 l 1
150 760 m 5
 450 760 l 1
 490 720 l 1
 450 680 l 1
 150 680 l 5
 110 720 l 5
 150 760 l 5
EndSplineSet
Validated: 1
EndChar

StartChar: u1FBF8
Encoding: 130040 130040 88
Width: 600
VWidth: 0
Flags: W
HStem: 0 80<150 450> 340 80<150 450> 680 80<150 450>
VStem: 60 80<90 330 430 670> 460 80<90 330 430 670>
CounterMasks: 1 e0
LayerCount: 2
Fore
SplineSet
460 670 m 1
 500 710 l 1
 540 670 l 1
 540 430 l 1
 500 390 l 1
 460 430 l 1
 460 670 l 1
60 670 m 5
 100 710 l 5
 140 670 l 5
 140 430 l 5
 100 390 l 5
 60 430 l 5
 60 670 l 5
60 330 m 5
 100 370 l 5
 140 330 l 5
 140 90 l 5
 100 50 l 5
 60 90 l 5
 60 330 l 5
150 420 m 5
 450 420 l 1
 490 380 l 1
 450 340 l 1
 150 340 l 5
 110 380 l 5
 150 420 l 5
460 330 m 1
 500 370 l 1
 540 330 l 1
 540 90 l 1
 500 50 l 1
 460 90 l 1
 460 330 l 1
150 760 m 5
 450 760 l 1
 490 720 l 1
 450 680 l 1
 150 680 l 5
 110 720 l 5
 150 760 l 5
150 80 m 5
 450 80 l 1
 490 40 l 1
 450 0 l 1
 150 0 l 5
 110 40 l 5
 150 80 l 5
EndSplineSet
Validated: 1
EndChar

StartChar: u1FBF9
Encoding: 130041 130041 89
Width: 600
VWidth: 0
Flags: W
HStem: 0 80<150 450> 340 80<150 450> 680 80<150 450>
VStem: 60 80<430 670> 460 80<90 330 430 670>
CounterMasks: 1 e0
LayerCount: 2
Fore
SplineSet
460 670 m 1
 500 710 l 1
 540 670 l 1
 540 430 l 1
 500 390 l 1
 460 430 l 1
 460 670 l 1
60 670 m 5
 100 710 l 5
 140 670 l 5
 140 430 l 5
 100 390 l 5
 60 430 l 5
 60 670 l 5
150 420 m 5
 450 420 l 1
 490 380 l 1
 450 340 l 1
 150 340 l 5
 110 380 l 5
 150 420 l 5
460 330 m 1
 500 370 l 1
 540 330 l 1
 540 90 l 1
 500 50 l 1
 460 90 l 1
 460 330 l 1
150 760 m 5
 450 760 l 1
 490 720 l 1
 450 680 l 1
 150 680 l 5
 110 720 l 5
 150 760 l 5
150 80 m 5
 450 80 l 1
 490 40 l 1
 450 0 l 1
 150 0 l 5
 110 40 l 5
 150 80 l 5
EndSplineSet
Validated: 1
EndChar

StartChar: u1FB3D
Encoding: 129853 129853 90
Width: 600
VWidth: -35
Flags: W
LayerCount: 2
Fore
SplineSet
0 -263 m 25
 0 116 l 25
 600 -263 l 29
 0 -263 l 25
EndSplineSet
EndChar

StartChar: u1FB3E
Encoding: 129854 129854 91
Width: 600
VWidth: -58
Flags: W
VStem: 0 300
LayerCount: 2
Fore
SplineSet
0 -287 m 25
 0 474 l 29
 300 -287 l 25
 0 -287 l 25
EndSplineSet
EndChar

StartChar: u1FB3F
Encoding: 129855 129855 92
Width: 600
VWidth: -58
Flags: W
LayerCount: 2
Fore
SplineSet
0 -287 m 25
 0 474 l 29
 600 -287 l 25
 0 -287 l 25
EndSplineSet
EndChar

StartChar: u1FB40
Encoding: 129856 129856 93
Width: 600
VWidth: -81
Flags: W
VStem: 0 300<-310 -283.4>
LayerCount: 2
Fore
SplineSet
0 -310 m 25
 0 830 l 29
 300 -310 l 25
 0 -310 l 25
EndSplineSet
EndChar

StartChar: u1FB41
Encoding: 129857 129857 94
Width: 600
VWidth: -81
Flags: W
VStem: 0 600<-310 450>
LayerCount: 2
Fore
SplineSet
300 830 m 29
 600 830 l 25
 600 -310 l 25
 0 -310 l 25
 0 450 l 25
 300 830 l 29
EndSplineSet
EndChar

StartChar: u1FB42
Encoding: 129858 129858 95
Width: 600
VWidth: -81
Flags: W
VStem: 0 600<-310 450>
LayerCount: 2
Fore
SplineSet
600 830 m 21
 600 -310 l 25
 0 -310 l 25
 0 450 l 1
 600 830 l 21
EndSplineSet
EndChar

StartChar: u1FB43
Encoding: 129859 129859 96
Width: 600
VWidth: -81
Flags: W
LayerCount: 2
Fore
SplineSet
300 830 m 25
 600 830 l 25
 600 -310 l 25
 0 -310 l 25
 0 70 l 29
 300 830 l 25
EndSplineSet
EndChar

StartChar: u1FB44
Encoding: 129860 129860 97
Width: 600
VWidth: -81
Flags: W
LayerCount: 2
Fore
SplineSet
600 830 m 17
 600 -310 l 25
 0 -310 l 25
 0 70 l 5
 600 830 l 17
EndSplineSet
EndChar

StartChar: u1FB45
Encoding: 129861 129861 98
Width: 600
VWidth: -81
Flags: W
LayerCount: 2
Fore
SplineSet
300 830 m 25
 600 830 l 25
 600 -310 l 25
 0 -310 l 25
 300 830 l 25
EndSplineSet
EndChar

StartChar: u1FB46
Encoding: 129862 129862 99
Width: 600
VWidth: -58
Flags: W
LayerCount: 2
Fore
SplineSet
600 474 m 17
 600 -287 l 25
 0 -287 l 25
 0 93 l 5
 600 474 l 17
EndSplineSet
EndChar

StartChar: u1FB47
Encoding: 129863 129863 100
Width: 600
VWidth: -35
Flags: W
VStem: 300 300
LayerCount: 2
Fore
SplineSet
300 -263 m 29
 600 116 l 25
 600 -263 l 25
 300 -263 l 29
EndSplineSet
EndChar

StartChar: u1FB48
Encoding: 129864 129864 101
Width: 600
VWidth: -35
Flags: W
LayerCount: 2
Fore
SplineSet
0 -263 m 25
 600 116 l 29
 600 -263 l 25
 0 -263 l 25
EndSplineSet
EndChar

StartChar: u1FB49
Encoding: 129865 129865 102
Width: 600
VWidth: -58
Flags: W
VStem: 300 300
LayerCount: 2
Fore
SplineSet
300 -287 m 25
 600 474 l 29
 600 -287 l 25
 300 -287 l 25
EndSplineSet
EndChar

StartChar: u1FB4A
Encoding: 129866 129866 103
Width: 600
VWidth: -58
Flags: W
LayerCount: 2
Fore
SplineSet
0 -287 m 25
 600 474 l 29
 600 -287 l 25
 0 -287 l 25
EndSplineSet
EndChar

StartChar: u1FB4B
Encoding: 129867 129867 104
Width: 600
VWidth: -81
Flags: W
VStem: 300 300<-310 -283.4>
LayerCount: 2
Fore
SplineSet
300 -310 m 25
 600 830 l 29
 600 -310 l 25
 300 -310 l 25
EndSplineSet
EndChar

StartChar: u1FB4C
Encoding: 129868 129868 105
Width: 600
VWidth: -81
Flags: W
VStem: 0 600<-310 450>
LayerCount: 2
Fore
SplineSet
0 830 m 25
 300 830 l 29
 600 450 l 25
 600 -310 l 25
 0 -310 l 25
 0 830 l 25
EndSplineSet
EndChar

StartChar: u1FB4D
Encoding: 129869 129869 106
Width: 600
VWidth: -81
Flags: W
VStem: 0 600<-310 450>
LayerCount: 2
Fore
SplineSet
0 830 m 25
 600 450 l 25
 600 -310 l 25
 0 -310 l 25
 0 830 l 25
EndSplineSet
EndChar

StartChar: u1FB4E
Encoding: 129870 129870 107
Width: 600
VWidth: -81
Flags: W
LayerCount: 2
Fore
SplineSet
0 830 m 25
 300 830 l 25
 600 70 l 29
 600 -310 l 25
 0 -310 l 25
 0 830 l 25
EndSplineSet
EndChar

StartChar: u1FB4F
Encoding: 129871 129871 108
Width: 600
VWidth: -81
Flags: W
LayerCount: 2
Fore
SplineSet
0 830 m 25
 600 70 l 29
 600 -310 l 25
 0 -310 l 25
 0 830 l 25
EndSplineSet
EndChar

StartChar: u1FB50
Encoding: 129872 129872 109
Width: 600
VWidth: -81
Flags: W
LayerCount: 2
Fore
SplineSet
0 830 m 29
 300 830 l 29
 600 -310 l 29
 0 -310 l 29
 0 830 l 29
EndSplineSet
EndChar

StartChar: u1FB51
Encoding: 129873 129873 110
Width: 600
VWidth: -65
Flags: W
LayerCount: 2
Fore
SplineSet
0 581 m 29
 600 86 l 25
 600 -294 l 25
 0 -294 l 25
 0 581 l 29
EndSplineSet
EndChar

StartChar: u1FB52
Encoding: 129874 129874 111
Width: 600
VWidth: -81
Flags: W
VStem: 0 600<70 830>
LayerCount: 2
Fore
SplineSet
0 830 m 25
 600 830 l 25
 600 -310 l 25
 300 -310 l 29
 0 70 l 25
 0 830 l 25
EndSplineSet
EndChar

StartChar: u1FB53
Encoding: 129875 129875 112
Width: 600
VWidth: -81
Flags: W
VStem: 0 600<70 830>
LayerCount: 2
Fore
SplineSet
0 830 m 25
 600 830 l 25
 600 -310 l 25
 0 70 l 25
 0 830 l 25
EndSplineSet
EndChar

StartChar: u1FB54
Encoding: 129876 129876 113
Width: 600
VWidth: -81
Flags: W
LayerCount: 2
Fore
SplineSet
0 830 m 25
 600 830 l 25
 600 -310 l 25
 300 -310 l 25
 0 450 l 29
 0 830 l 25
EndSplineSet
EndChar

StartChar: u1FB55
Encoding: 129877 129877 114
Width: 600
VWidth: -81
Flags: W
LayerCount: 2
Fore
SplineSet
0 830 m 25
 600 830 l 25
 600 -310 l 25
 0 450 l 29
 0 830 l 25
EndSplineSet
EndChar

StartChar: u1FB56
Encoding: 129878 129878 115
Width: 600
VWidth: -81
Flags: W
LayerCount: 2
Fore
SplineSet
0 830 m 25
 600 830 l 25
 600 -310 l 25
 300 -310 l 25
 0 830 l 25
EndSplineSet
EndChar

StartChar: u1FB57
Encoding: 129879 129879 116
Width: 600
VWidth: -128
Flags: W
VStem: 0 300
LayerCount: 2
Fore
SplineSet
0 783 m 25
 300 783 l 29
 0 404 l 25
 0 783 l 25
EndSplineSet
EndChar

StartChar: u1FB58
Encoding: 129880 129880 117
Width: 600
VWidth: -128
Flags: W
LayerCount: 2
Fore
SplineSet
0 783 m 25
 600 783 l 29
 0 404 l 25
 0 783 l 25
EndSplineSet
EndChar

StartChar: u1FB59
Encoding: 129881 129881 118
Width: 600
VWidth: -105
Flags: W
VStem: 0 300
LayerCount: 2
Fore
SplineSet
0 807 m 25
 300 807 l 29
 0 46 l 25
 0 807 l 25
EndSplineSet
EndChar

StartChar: u1FB5A
Encoding: 129882 129882 119
Width: 600
VWidth: -105
Flags: W
LayerCount: 2
Fore
SplineSet
0 807 m 25
 600 807 l 29
 0 46 l 25
 0 807 l 25
EndSplineSet
EndChar

StartChar: u1FB5B
Encoding: 129883 129883 120
Width: 600
VWidth: -81
Flags: W
VStem: 0 300<803.4 830>
LayerCount: 2
Fore
SplineSet
0 830 m 25
 300 830 l 25
 0 -310 l 29
 0 830 l 25
EndSplineSet
EndChar

StartChar: u1FB5C
Encoding: 129884 129884 121
Width: 600
VWidth: -105
Flags: W
LayerCount: 2
Fore
SplineSet
0 807 m 29
 600 807 l 25
 600 427 l 25
 0 46 l 25
 0 807 l 29
EndSplineSet
EndChar

StartChar: u1FB5D
Encoding: 129885 129885 122
Width: 600
VWidth: -81
Flags: W
VStem: 0 600<70 830>
LayerCount: 2
Fore
SplineSet
0 830 m 29
 600 830 l 25
 600 70 l 25
 300 -310 l 25
 0 -310 l 25
 0 830 l 29
EndSplineSet
EndChar

StartChar: u1FB5E
Encoding: 129886 129886 123
Width: 600
VWidth: -81
Flags: W
VStem: 0 600<70 830>
LayerCount: 2
Fore
SplineSet
0 830 m 25
 600 830 l 25
 600 70 l 29
 0 -310 l 25
 0 830 l 25
EndSplineSet
EndChar

StartChar: u1FB5F
Encoding: 129887 129887 124
Width: 600
VWidth: -81
Flags: W
LayerCount: 2
Fore
SplineSet
0 830 m 25
 600 830 l 25
 600 450 l 29
 300 -310 l 25
 0 -310 l 25
 0 830 l 25
EndSplineSet
EndChar

StartChar: u1FB60
Encoding: 129888 129888 125
Width: 600
VWidth: -81
Flags: W
LayerCount: 2
Fore
SplineSet
0 830 m 25
 600 830 l 25
 600 450 l 29
 0 -310 l 25
 0 830 l 25
EndSplineSet
EndChar

StartChar: u1FB61
Encoding: 129889 129889 126
Width: 600
VWidth: -81
Flags: W
LayerCount: 2
Fore
SplineSet
0 830 m 25
 600 830 l 25
 300 -310 l 25
 0 -310 l 25
 0 830 l 25
EndSplineSet
EndChar

StartChar: u1FB62
Encoding: 129890 129890 127
Width: 600
VWidth: -128
Flags: W
VStem: 300 300
LayerCount: 2
Fore
SplineSet
300 783 m 25
 600 783 l 25
 600 404 l 29
 300 783 l 25
EndSplineSet
EndChar

StartChar: u1FB63
Encoding: 129891 129891 128
Width: 600
VWidth: -128
Flags: W
LayerCount: 2
Fore
SplineSet
0 783 m 29
 600 783 l 25
 600 404 l 25
 0 783 l 29
EndSplineSet
EndChar

StartChar: u1FB65
Encoding: 129893 129893 129
Width: 600
VWidth: -105
Flags: W
LayerCount: 2
Fore
SplineSet
0 807 m 29
 600 807 l 25
 600 46 l 25
 0 807 l 29
EndSplineSet
EndChar

StartChar: u1FB66
Encoding: 129894 129894 130
Width: 600
VWidth: -81
Flags: W
VStem: 300 300<803.4 830>
LayerCount: 2
Fore
SplineSet
300 830 m 25
 600 830 l 25
 600 -310 l 29
 300 830 l 25
EndSplineSet
EndChar

StartChar: u1FB67
Encoding: 129895 129895 131
Width: 600
VWidth: -105
Flags: W
LayerCount: 2
Fore
SplineSet
0 807 m 25
 600 807 l 25
 600 46 l 25
 0 427 l 29
 0 807 l 25
EndSplineSet
EndChar

StartChar: u1FB68
Encoding: 129896 129896 132
Width: 600
VWidth: -81
Flags: W
LayerCount: 2
Fore
SplineSet
0 830 m 25
 600 830 l 25
 600 -310 l 25
 0 -310 l 25
 300 260 l 29
 0 830 l 25
EndSplineSet
EndChar

StartChar: u1FB69
Encoding: 129897 129897 133
Width: 600
VWidth: -81
Flags: W
VStem: 0 600<-310 260>
LayerCount: 2
Fore
SplineSet
0 830 m 17
 300 260 l 5
 600 830 l 9
 600 -310 l 25
 0 -310 l 1
 0 830 l 17
EndSplineSet
EndChar

StartChar: u1FB6A
Encoding: 129898 129898 134
Width: 600
VWidth: -81
Flags: W
LayerCount: 2
Fore
SplineSet
0 830 m 1
 600 830 l 1
 300 260 l 5
 600 -310 l 9
 0 -310 l 1
 0 830 l 1
EndSplineSet
EndChar

StartChar: u1FB6B
Encoding: 129899 129899 135
Width: 600
VWidth: -81
Flags: W
VStem: 0 600<260 830>
LayerCount: 2
Fore
SplineSet
0 830 m 1
 600 830 l 1
 600 -310 l 17
 300 260 l 5
 0 -310 l 1
 0 830 l 1
EndSplineSet
EndChar

StartChar: u1FB6C
Encoding: 129900 129900 136
Width: 600
VWidth: -81
Flags: W
VStem: 0 300
LayerCount: 2
Fore
SplineSet
0 830 m 25
 300 260 l 25
 0 -310 l 29
 0 830 l 25
EndSplineSet
EndChar

StartChar: u1FB6D
Encoding: 129901 129901 137
Width: 600
VWidth: -117
Flags: W
LayerCount: 2
Fore
SplineSet
0 795 m 29
 600 795 l 25
 300 225 l 25
 0 795 l 29
EndSplineSet
EndChar

StartChar: u1FB6E
Encoding: 129902 129902 138
Width: 600
VWidth: -81
Flags: W
VStem: 300 300
LayerCount: 2
Fore
SplineSet
600 830 m 29
 600 -310 l 29
 300 260 l 29
 600 830 l 29
EndSplineSet
EndChar

StartChar: u1FB6F
Encoding: 129903 129903 139
Width: 600
VWidth: -46
Flags: W
LayerCount: 2
Fore
SplineSet
0 -275 m 29
 300 295 l 29
 600 -275 l 29
 0 -275 l 29
EndSplineSet
EndChar

StartChar: u1FBB1
Encoding: 129969 129969 140
Width: 600
VWidth: 0
Flags: W
HStem: 0 21G<25 575>
LayerCount: 2
Fore
SplineSet
130 190 m 25
 290 78 l 25
 490 420 l 25
 440 460 l 25
 270 179 l 25
 170 250 l 25
 130 190 l 25
25 0 m 1
 25 550 l 1
 575 550 l 1
 575 0 l 1
 25 0 l 1
EndSplineSet
Validated: 1
EndChar

StartChar: u1FB70
Encoding: 129904 129904 141
Width: 600
VWidth: -81
Flags: W
VStem: 75 75<-310 830>
LayerCount: 2
Fore
SplineSet
75 830 m 5
 150 830 l 1
 150 -310 l 1
 75 -310 l 5
 75 830 l 5
EndSplineSet
EndChar

StartChar: u1FB71
Encoding: 129905 129905 142
Width: 600
VWidth: -81
Flags: W
VStem: 150 75<-310 830>
LayerCount: 2
Fore
SplineSet
150 830 m 1
 225 830 l 1
 225 -310 l 1
 150 -310 l 1
 150 830 l 1
EndSplineSet
EndChar

StartChar: u1FB72
Encoding: 129906 129906 143
Width: 600
VWidth: -81
Flags: W
VStem: 225 75<-310 830>
LayerCount: 2
Fore
SplineSet
225 830 m 5
 300 830 l 1
 300 -310 l 1
 225 -310 l 5
 225 830 l 5
EndSplineSet
EndChar

StartChar: u1FB73
Encoding: 129907 129907 144
Width: 600
VWidth: -81
Flags: W
VStem: 300 75<-310 830>
LayerCount: 2
Fore
SplineSet
300 830 m 5
 375 830 l 1
 375 -310 l 1
 300 -310 l 5
 300 830 l 5
EndSplineSet
EndChar

StartChar: u1FB74
Encoding: 129908 129908 145
Width: 600
VWidth: -81
Flags: W
VStem: 375 75<-310 830>
LayerCount: 2
Fore
SplineSet
375 830 m 5
 450 830 l 5
 450 -310 l 5
 375 -310 l 5
 375 830 l 5
EndSplineSet
EndChar

StartChar: u1FB75
Encoding: 129909 129909 146
Width: 600
VWidth: -81
Flags: W
VStem: 450 75<-310 830>
LayerCount: 2
Fore
SplineSet
450 830 m 5
 525 830 l 5
 525 -310 l 5
 450 -310 l 5
 450 830 l 5
EndSplineSet
EndChar

StartChar: u1FB76
Encoding: 129910 129910 147
Width: 600
VWidth: -125
Flags: W
HStem: 501 143<0 600>
LayerCount: 2
Fore
SplineSet
0 644 m 5
 600 644 l 5
 600 501 l 5
 0 501 l 5
 0 644 l 5
EndSplineSet
EndChar

StartChar: u1FB77
Encoding: 129911 129911 148
Width: 600
VWidth: -108
Flags: W
HStem: 376 143<0 600>
LayerCount: 2
Fore
SplineSet
0 519 m 5
 600 519 l 5
 600 376 l 5
 0 376 l 5
 0 519 l 5
EndSplineSet
EndChar

StartChar: u1FB78
Encoding: 129912 129912 149
Width: 600
VWidth: -90
Flags: W
HStem: 251 143<0 600>
LayerCount: 2
Fore
SplineSet
0 394 m 5
 600 394 l 5
 600 251 l 5
 0 251 l 5
 0 394 l 5
EndSplineSet
EndChar

StartChar: u1FB79
Encoding: 129913 129913 150
Width: 600
VWidth: -73
Flags: W
HStem: 126 143<0 600>
LayerCount: 2
Fore
SplineSet
0 269 m 1
 600 269 l 1
 600 126 l 5
 0 126 l 1
 0 269 l 1
EndSplineSet
EndChar

StartChar: u1FB7A
Encoding: 129914 129914 151
Width: 600
VWidth: -55
Flags: W
HStem: 1 143<0 600>
LayerCount: 2
Fore
SplineSet
0 144 m 5
 600 144 l 5
 600 1 l 5
 0 1 l 5
 0 144 l 5
EndSplineSet
EndChar

StartChar: u1FB7B
Encoding: 129915 129915 152
Width: 600
VWidth: -38
Flags: W
HStem: -124 143<0 600>
LayerCount: 2
Fore
SplineSet
0 19 m 5
 600 19 l 5
 600 -124 l 5
 0 -124 l 5
 0 19 l 5
EndSplineSet
EndChar

StartChar: u1FB7C
Encoding: 129916 129916 153
Width: 600
VWidth: -81
Flags: W
HStem: -310 142<75 600>
VStem: 0 75<-168 830>
LayerCount: 2
Fore
SplineSet
0 830 m 25
 75 830 l 25
 75 -168 l 25
 600 -168 l 25
 600 -310 l 25
 0 -310 l 29
 0 830 l 25
EndSplineSet
EndChar

StartChar: u1FB7D
Encoding: 129917 129917 154
Width: 600
VWidth: -81
Flags: W
HStem: 688 142<75 600>
VStem: 0 75<-310 688>
LayerCount: 2
Fore
SplineSet
0 830 m 25
 600 830 l 25
 600 688 l 29
 75 688 l 25
 75 -310 l 25
 0 -310 l 25
 0 830 l 25
EndSplineSet
EndChar

StartChar: u1FB7E
Encoding: 129918 129918 155
Width: 600
VWidth: -81
Flags: W
HStem: 688 142<0 525>
VStem: 525 75<-310 688>
LayerCount: 2
Fore
SplineSet
0 830 m 25
 600 830 l 25
 600 -310 l 25
 525 -310 l 25
 525 688 l 29
 0 688 l 25
 0 830 l 25
EndSplineSet
EndChar

StartChar: u1FB7F
Encoding: 129919 129919 156
Width: 600
VWidth: -81
Flags: W
HStem: -310 142<0 525>
VStem: 525 75<-168 830>
LayerCount: 2
Fore
SplineSet
0 -168 m 25
 525 -168 l 25
 525 830 l 25
 600 830 l 25
 600 -310 l 25
 0 -310 l 29
 0 -168 l 25
EndSplineSet
EndChar

StartChar: u1FB80
Encoding: 129920 129920 157
Width: 600
VWidth: -81
Flags: W
HStem: -310 142<0 600> 688 142<0 600>
LayerCount: 2
Fore
SplineSet
0 -168 m 1
 600 -168 l 1
 600 -310 l 1
 0 -310 l 1
 0 -168 l 1
0 830 m 5
 600 830 l 5
 600 688 l 5
 0 688 l 5
 0 830 l 5
EndSplineSet
EndChar

StartChar: u1FB81
Encoding: 129921 129921 158
Width: 600
VWidth: -81
Flags: W
HStem: -310 142<0 600> 118 142<0 600> 402 143<0 600> 688 142<0 600>
VStem: 0 600<-310 -168 118 260 402 545 688 830>
LayerCount: 2
Fore
SplineSet
0 260 m 5
 600 260 l 5
 600 118 l 5
 0 118 l 5
 0 260 l 5
0 545 m 1
 600 545 l 1
 600 402 l 1
 0 402 l 1
 0 545 l 1
0 -168 m 1
 600 -168 l 1
 600 -310 l 1
 0 -310 l 1
 0 -168 l 1
0 830 m 1
 600 830 l 1
 600 688 l 1
 0 688 l 1
 0 830 l 1
EndSplineSet
EndChar

StartChar: u1FB82
Encoding: 129922 129922 159
Width: 600
VWidth: -134
Flags: W
HStem: 492 286<0 600>
LayerCount: 2
Fore
SplineSet
0 778 m 1
 600 778 l 1
 600 492 l 5
 0 492 l 5
 0 778 l 1
EndSplineSet
EndChar

StartChar: u1FB83
Encoding: 129923 129923 160
Width: 600
VWidth: -125
Flags: W
HStem: 359 427<0 600>
LayerCount: 2
Fore
SplineSet
0 786 m 1
 600 786 l 1
 600 359 l 5
 0 359 l 1
 0 786 l 1
EndSplineSet
EndChar

StartChar: u1FB84
Encoding: 129924 129924 161
Width: 600
VWidth: -108
Flags: W
HStem: 91 713<0 600>
VStem: 0 600<91 804>
LayerCount: 2
Fore
SplineSet
0 804 m 1
 600 804 l 1
 600 91 l 1
 0 91 l 1
 0 804 l 1
EndSplineSet
EndChar

StartChar: u1FB85
Encoding: 129925 129925 162
Width: 600
VWidth: -99
Flags: W
VStem: 0 600<-42 812>
LayerCount: 2
Fore
SplineSet
0 812 m 1
 600 812 l 1
 600 -42 l 5
 0 -42 l 1
 0 812 l 1
EndSplineSet
EndChar

StartChar: u1FB86
Encoding: 129926 129926 163
Width: 600
VWidth: -90
Flags: W
VStem: 0 600<-176 821>
LayerCount: 2
Fore
SplineSet
0 821 m 5
 600 821 l 5
 600 -176 l 1
 0 -176 l 1
 0 821 l 5
EndSplineSet
EndChar

StartChar: u1FB87
Encoding: 129927 129927 164
Width: 600
VWidth: -81
Flags: W
VStem: 450 150<-310 830>
LayerCount: 2
Fore
SplineSet
450 830 m 5
 600 830 l 1
 600 -310 l 1
 450 -310 l 1
 450 830 l 5
EndSplineSet
EndChar

StartChar: u1FB88
Encoding: 129928 129928 165
Width: 600
VWidth: -81
Flags: W
VStem: 375 225<-310 830>
LayerCount: 2
Fore
SplineSet
375 830 m 5
 600 830 l 1
 600 -310 l 1
 375 -310 l 1
 375 830 l 5
EndSplineSet
EndChar

StartChar: u1FB89
Encoding: 129929 129929 166
Width: 600
VWidth: -81
Flags: W
VStem: 225 375<-310 830>
LayerCount: 2
Fore
SplineSet
225 830 m 5
 600 830 l 1
 600 -310 l 1
 225 -310 l 5
 225 830 l 5
EndSplineSet
EndChar

StartChar: u1FB8A
Encoding: 129930 129930 167
Width: 600
VWidth: -81
Flags: W
VStem: 150 450<-310 830>
LayerCount: 2
Fore
SplineSet
150 830 m 5
 600 830 l 1
 600 -310 l 1
 150 -310 l 5
 150 830 l 5
EndSplineSet
EndChar

StartChar: u1FB8B
Encoding: 129931 129931 168
Width: 600
VWidth: -81
Flags: W
VStem: 75 525<-310 830>
LayerCount: 2
Fore
SplineSet
75 830 m 1
 600 830 l 1
 600 -310 l 1
 75 -310 l 5
 75 830 l 1
EndSplineSet
EndChar

StartChar: u1FB97
Encoding: 129943 129943 169
Width: 600
VWidth: -64
Flags: W
HStem: -292 284<0 600> 278 284<0 600>
VStem: 0 600<-292 -8 278 562>
LayerCount: 2
Fore
SplineSet
0 562 m 1
 600 562 l 1
 600 278 l 5
 0 278 l 1
 0 562 l 1
0 -8 m 1
 600 -8 l 1
 600 -292 l 1
 0 -292 l 1
 0 -8 l 1
EndSplineSet
EndChar

StartChar: u1FB9A
Encoding: 129946 129946 170
Width: 600
VWidth: -81
Flags: W
LayerCount: 2
Fore
SplineSet
0 830 m 1
 600 830 l 1
 301 260 l 5
 600 -310 l 1
 0 -310 l 1
 299 260 l 1
 0 830 l 1
EndSplineSet
EndChar

StartChar: u1FB9B
Encoding: 129947 129947 171
Width: 600
VWidth: -81
Flags: W
LayerCount: 2
Fore
SplineSet
600 830 m 1
 600 -310 l 1
 300 259 l 5
 0 -310 l 1
 0 830 l 1
 300 261 l 1
 600 830 l 1
EndSplineSet
EndChar

StartChar: u1FBB5
Encoding: 129973 129973 172
Width: 600
VWidth: 0
Flags: W
HStem: -200 125<0 600> 255 90<250 500> 675 125<0 600>
CounterMasks: 1 e0
LayerCount: 2
Fore
SplineSet
250 505 m 1
 250 345 l 1
 500 345 l 1
 500 255 l 1
 250 255 l 1
 250 95 l 5
 100 300 l 1
 250 505 l 1
0 -75 m 1
 600 -75 l 1
 600 -200 l 1
 0 -200 l 1
 0 -75 l 1
0 800 m 1
 600 800 l 1
 600 675 l 1
 0 675 l 1
 0 800 l 1
EndSplineSet
Validated: 1
EndChar

StartChar: u1FBB6
Encoding: 129974 129974 173
Width: 600
VWidth: 0
Flags: W
HStem: -200 125<0 600> 255 90<100 350> 675 125<0 600>
CounterMasks: 1 e0
LayerCount: 2
Fore
SplineSet
350 505 m 1
 500 300 l 1
 350 95 l 5
 350 255 l 1
 100 255 l 1
 100 345 l 1
 350 345 l 1
 350 505 l 1
0 -75 m 1
 600 -75 l 1
 600 -200 l 1
 0 -200 l 1
 0 -75 l 1
0 800 m 1
 600 800 l 1
 600 675 l 1
 0 675 l 1
 0 800 l 1
EndSplineSet
Validated: 1
EndChar

StartChar: u1FBB7
Encoding: 129975 129975 174
Width: 600
VWidth: 0
Flags: W
VStem: 225 90<250 500> 525 75<-200 800>
LayerCount: 2
Fore
SplineSet
475 250 m 1
 270 100 l 1
 65 250 l 5
 225 250 l 1
 225 500 l 1
 315 500 l 1
 315 250 l 1
 475 250 l 1
525 800 m 1
 600 800 l 1
 600 -200 l 1
 525 -200 l 1
 525 800 l 1
EndSplineSet
Validated: 1
EndChar

StartChar: u1FBB8
Encoding: 129976 129976 175
Width: 600
VWidth: 0
Flags: W
VStem: 225 90<100 350> 525 75<-200 800>
LayerCount: 2
Fore
SplineSet
475 350 m 1
 315 350 l 1
 315 100 l 1
 225 100 l 1
 225 350 l 1
 65 350 l 5
 270 500 l 1
 475 350 l 1
525 800 m 1
 600 800 l 1
 600 -200 l 1
 525 -200 l 1
 525 800 l 1
EndSplineSet
Validated: 1
EndChar

StartChar: u1FBB9
Encoding: 129977 129977 176
Width: 600
VWidth: 0
Flags: W
HStem: 0 70<120 600> 480 70<120 450 520 600> 650 70<160 410>
VStem: 50 70<70 480 550 610> 450 70<550 610>
LayerCount: 2
Fore
SplineSet
600 480 m 5
 452 480 l 5
 120 480 l 5
 120 70 l 5
 600 70 l 29
 600 0 l 29
 50 0 l 25
 50 660 l 17
 110 720 l 1
 460 720 l 1
 520 660 l 5
 520 550 l 5
 600 550 l 5
 600 480 l 5
120 550 m 5
 450 550 l 5
 450 610 l 5
 410 650 l 5
 160 650 l 5
 120 610 l 5
 120 550 l 5
EndSplineSet
Validated: 1
EndChar

StartChar: u1FBBD
Encoding: 129981 129981 177
Width: 600
VWidth: 0
Flags: W
HStem: 0 21G<60 540>
LayerCount: 2
Fore
SplineSet
60 0 m 1
 300 240 l 5
 540 0 l 1
 60 0 l 1
25 35 m 1
 25 515 l 1
 265 275 l 1
 25 35 l 1
575 35 m 1
 335 275 l 1
 575 515 l 1
 575 35 l 1
60 550 m 1
 540 550 l 1
 300 310 l 1
 60 550 l 1
EndSplineSet
Validated: 1
EndChar

StartChar: u1FBBE
Encoding: 129982 129982 178
Width: 600
VWidth: 0
Flags: W
HStem: 0 21G<25 283 337 575>
LayerCount: 2
Fore
SplineSet
575 237 m 25
 575 0 l 25
 337 0 l 29
 575 237 l 25
25 550 m 25
 575 550 l 17
 575 312 l 1
 263 0 l 9
 25 0 l 25
 25 550 l 25
EndSplineSet
Validated: 1
EndChar

StartChar: u1FBBF
Encoding: 129983 129983 179
Width: 600
VWidth: 0
Flags: W
HStem: 0 21G<25 275 325 575>
LayerCount: 2
Fore
SplineSet
300 500 m 25
 525 275 l 25
 300 50 l 29
 75 275 l 25
 300 500 l 25
25 300 m 25
 25 550 l 25
 275 550 l 25
 25 300 l 25
575 300 m 25
 325 550 l 25
 575 550 l 25
 575 300 l 25
25 250 m 25
 275 0 l 25
 25 0 l 25
 25 250 l 25
575 250 m 25
 575 0 l 25
 325 0 l 25
 575 250 l 25
EndSplineSet
Validated: 1
EndChar

StartChar: u1FBB4
Encoding: 129972 129972 180
Width: 600
VWidth: 0
Flags: W
HStem: 0 150<250 470> 468 82<410 470>
VStem: 470 105<150 468>
LayerCount: 2
Fore
SplineSet
80 180 m 29
 210 50 l 1
 250 90 l 1
 190 150 l 1
 470 150 l 1
 470 468 l 1
 410 468 l 25
 410 211 l 1
 190 210 l 1
 250 270 l 1
 210 310 l 1
 80 180 l 29
25 0 m 1
 25 550 l 1
 575 550 l 1
 575 0 l 1
 25 0 l 1
EndSplineSet
Validated: 1
EndChar

StartChar: u1FBBB
Encoding: 129979 129979 181
Width: 600
VWidth: 0
Flags: W
HStem: 0 240<180 260 340 420> 160 80<40 180 420 560> 320 240<180 260 340 420> 320 80<40 180 420 560>
VStem: 40 220<160 240 320 400> 180 80<0 160 400 560> 340 220<160 240 320 400> 340 80<0 160 400 560>
LayerCount: 2
Fore
SplineSet
180 560 m 25x24
 260 560 l 1x24
 260 320 l 25x28
 40 320 l 25
 40 400 l 25x18
 180 400 l 1x14
 180 560 l 25x24
420 560 m 25x21
 420 400 l 1x11
 560 400 l 25
 560 320 l 25x12
 340 320 l 25x22
 340 560 l 1
 420 560 l 25x21
180 0 m 25x84
 180 160 l 1x44
 40 160 l 25
 40 240 l 25x48
 260 240 l 25x88
 260 0 l 1
 180 0 l 25x84
420 0 m 25x81
 340 0 l 1x81
 340 240 l 25x82
 560 240 l 25
 560 160 l 25x42
 420 160 l 1x41
 420 0 l 25x81
EndSplineSet
Validated: 1
EndChar

StartChar: u1FBBC
Encoding: 129980 129980 182
Width: 600
VWidth: 0
Flags: W
HStem: 0 70<25 505> 203 144<249 351> 480 70<25 505>
VStem: 228 144<224 326> 505 70<70 480>
CounterMasks: 1 e0
LayerCount: 2
Fore
SplineSet
228 275 m 0
 228 315 260 347 300 347 c 0
 340 347 372 315 372 275 c 0
 372 235 340 203 300 203 c 0
 260 203 228 235 228 275 c 0
25 550 m 25
 575 550 l 25
 575 0 l 25
 25 0 l 25
 25 70 l 25
 505 70 l 29
 505 480 l 29
 25 480 l 25
 25 550 l 25
EndSplineSet
Validated: 1
EndChar

StartChar: u1FB98
Encoding: 129944 129944 183
Width: 600
VWidth: -81
Flags: W
LayerCount: 2
Fore
SplineSet
400 -310 m 25
 600 -82 l 25
 600 -196 l 25
 500 -310 l 25
 400 -310 l 25
200 -310 m 25
 600 146 l 25
 600 32 l 25
 300 -310 l 25
 200 -310 l 25
0 830 m 9
 100 830 l 1
 0 716 l 25
 0 830 l 9
300 830 m 1
 0 488 l 1
 0 602 l 1
 200 830 l 1
 300 830 l 1
0 -310 m 25
 600 374 l 25
 600 260 l 25
 100 -310 l 25
 0 -310 l 25
0 -82 m 25
 600 602 l 25
 600 488 l 25
 0 -196 l 25
 0 -82 l 25
0 146 m 25
 600 830 l 25
 600 716 l 25
 0 32 l 25
 0 146 l 25
0 374 m 25
 400 830 l 25
 500 830 l 25
 0 260 l 25
 0 374 l 25
EndSplineSet
EndChar

StartChar: u1FB99
Encoding: 129945 129945 184
Width: 600
VWidth: -81
Flags: W
LayerCount: 2
Fore
SplineSet
200 -310 m 29
 100 -310 l 29
 0 -196 l 29
 0 -82 l 29
 200 -310 l 29
400 -310 m 29
 300 -310 l 29
 0 32 l 29
 0 146 l 29
 400 -310 l 29
600 830 m 21
 600 716 l 29
 500 830 l 5
 600 830 l 21
300 830 m 5
 400 830 l 5
 600 602 l 5
 600 488 l 5
 300 830 l 5
600 -310 m 29
 500 -310 l 29
 0 260 l 29
 0 374 l 29
 600 -310 l 29
600 -82 m 29
 600 -196 l 29
 0 488 l 29
 0 602 l 29
 600 -82 l 29
600 146 m 29
 600 32 l 29
 0 716 l 29
 0 830 l 29
 600 146 l 29
600 374 m 29
 600 260 l 29
 100 830 l 29
 200 830 l 29
 600 374 l 29
EndSplineSet
EndChar

StartChar: u1FB95
Encoding: 129941 129941 185
Width: 600
VWidth: -81
Flags: W
HStem: -310 285<151 299 451 600> -25 285<0 149 301 449> 260 285<151 299 451 600> 545 285<0 149 301 449>
VStem: 0 150<-24 259 546 830> 150 150<-310 -26 261 544> 300 150<-24 259 546 830> 450 150<-310 -26 261 544>
LayerCount: 2
Fore
SplineSet
0 830 m 5x58
 150 830 l 5x58
 150 546 l 5
 151 545 l 5
 299 545 l 5x28
 300 546 l 5
 300 830 l 5
 450 830 l 5
 450 546 l 5x1a
 451 545 l 5
 600 545 l 5
 600 260 l 5x21
 451 260 l 5
 450 259 l 5
 450 -24 l 5x22
 451 -25 l 5
 600 -25 l 5
 600 -310 l 5
 450 -310 l 5xa1
 450 -26 l 5
 449 -25 l 5
 301 -25 l 5x41
 300 -26 l 5
 300 -310 l 5
 150 -310 l 5
 150 -223 150 -72 150 -26 c 5x85
 149 -25 l 5
 0 -25 l 5
 0 260 l 5x48
 149 260 l 5
 150 261 l 5
 150 544 l 5x44
 149 545 l 5
 0 545 l 5
 0 830 l 5x58
299 260 m 5xaa
 151 260 l 5
 150 259 l 5
 150 -24 l 5
 151 -25 l 5
 299 -25 l 5
 300 -24 l 5
 300 259 l 5
 299 260 l 5xaa
450 261 m 5x55
 450 544 l 5
 449 545 l 5
 301 545 l 5
 300 544 l 5
 300 261 l 5
 301 260 l 5
 449 260 l 5
 450 261 l 5x55
EndSplineSet
EndChar

StartChar: u1FB96
Encoding: 129942 129942 186
Width: 600
VWidth: -81
Flags: W
HStem: -310 285<0 149 301 449> -25 285<151 299 451 600> 260 285<0 149 301 449> 545 285<151 299 451 600>
VStem: 0 150<-310 -26 261 544> 150 150<-24 259 546 830> 300 150<-310 -26 261 544> 450 150<-24 259 546 830>
LayerCount: 2
Fore
SplineSet
600 830 m 5x15
 600 545 l 5x15
 451 545 l 5
 450 544 l 5
 450 261 l 5x12
 451 260 l 5
 600 260 l 5
 600 -25 l 5
 451 -25 l 5x51
 450 -26 l 5
 450 -72 450 -223 450 -310 c 5
 300 -310 l 5x82
 300 -26 l 5
 299 -25 l 5
 151 -25 l 5x42
 150 -26 l 5
 150 -310 l 5
 0 -310 l 5
 0 -25 l 5x8a
 149 -25 l 5
 150 -24 l 5
 150 259 l 5x84
 149 260 l 5
 0 260 l 5
 0 545 l 5
 149 545 l 5xa8
 150 546 l 5
 150 830 l 5
 300 830 l 5x14
 300 546 l 5
 301 545 l 5
 449 545 l 5x24
 450 546 l 5
 450 830 l 5
 600 830 l 5x15
301 260 m 5xa5
 300 259 l 5
 300 -24 l 5
 301 -25 l 5
 449 -25 l 5
 450 -24 l 5
 450 259 l 5
 449 260 l 5
 301 260 l 5xa5
150 261 m 5x5a
 151 260 l 5
 299 260 l 5
 300 261 l 5
 300 544 l 5
 299 545 l 5
 151 545 l 5
 150 544 l 5
 150 261 l 5x5a
EndSplineSet
EndChar

StartChar: u1FBBA
Encoding: 129978 129978 187
Width: 600
VWidth: 0
Flags: W
HStem: 0 70<0 480> 480 70<0 410>
VStem: 480 70<70 410>
LayerCount: 2
Fore
SplineSet
0 550 m 17
 420 550 l 1
 550 420 l 9
 550 0 l 25
 0 0 l 25
 0 70 l 25
 480 70 l 25
 480 410 l 17
 410 480 l 1
 0 480 l 9
 0 550 l 17
EndSplineSet
Validated: 1
EndChar

StartChar: u1FBC4
Encoding: 129988 129988 188
Width: 600
VWidth: 0
Flags: W
HStem: 0 40<290 340> 95 35<290 340> 492 58<228.125 363.719>
VStem: 25 265<40 95 130 281.197> 340 235<40 95 130 276.848> 415 160<326.354 446.033>
LayerCount: 2
Fore
SplineSet
25 0 m 5xf4
 25 550 l 5
 575 550 l 5
 575 0 l 5
 25 0 l 5xf4
290 95 m 5
 290 40 l 5
 340 40 l 5
 340 95 l 5xf8
 290 95 l 5
294 444 m 4
 337 444 365 413 365 388 c 4
 365 343 290 271 290 231 c 6
 290 130 l 5
 340 130 l 5
 340 226 l 6xf8
 340 274 415 325 415 386 c 4xf4
 415 411 407 442 369 467 c 4
 340 486 325 492 291 492 c 4
 249 492 200 457 187 428 c 4
 166 382 174 401 166 382 c 5
 212 364 l 5
 227 398 258 444 294 444 c 4
EndSplineSet
Validated: 1
EndChar

StartChar: u1FB90
Encoding: 129936 129936 189
Width: 600
VWidth: -81
Flags: W
HStem: -310 114<1 59 121 179 241 299 361 419 481 539> -196 114<61 119 181 239 301 359 421 479 541 599> -82 114<1 59 121 179 241 299 361 419 481 539> 32 114<61 119 181 239 301 359 421 479 541 599> 146 114<1 59 121 179 241 299 361 419 481 539> 260 114<61 119 181 239 301 359 421 479 541 599> 374 114<1 59 121 179 241 299 361 419 481 539> 488 114<61 119 181 239 301 359 421 479 541 599> 602 114<1 59 121 179 241 299 361 419 481 539> 716 114<61 119 181 239 301 359 421 479 541 599>
VStem: 0 60<-309 -197 -81 31 147 259 375 487 603 715> 60 60<-195 -83 33 145 261 373 489 601 717 829> 120 60<-309 -197 -81 31 147 259 375 487 603 715> 180 60<-195 -83 33 145 261 373 489 601 717 829> 240 60<-309 -197 -81 31 147 259 375 487 603 715> 300 60<-195 -83 33 145 261 373 489 601 717 829> 360 60<-309 -197 -81 31 147 259 375 487 603 715> 420 60<-195 -83 33 145 261 373 489 601 717 829> 480 60<-309 -197 -81 31 147 259 375 487 603 715> 540 60<-195 -83 33 145 261 373 489 601 717 829>
LayerCount: 2
Fore
SplineSet
0 715 m 5x00a0
 1 716 l 5
 59 716 l 5
 60 715 l 5
 60 603 l 5
 59 602 l 5
 1 602 l 5
 0 603 l 5
 0 715 l 5x00a0
0 487 m 5
 1 488 l 5
 59 488 l 5
 60 487 l 5
 60 375 l 5
 59 374 l 5
 1 374 l 5x0220
 0 375 l 5
 0 487 l 5
0 259 m 5
 1 260 l 5
 59 260 l 5
 60 259 l 5
 60 147 l 5
 59 146 l 5
 1 146 l 5x0820
 0 147 l 5
 0 259 l 5
0 31 m 5
 1 32 l 5
 59 32 l 5
 60 31 l 5
 60 -81 l 5
 59 -82 l 5
 1 -82 l 5x2020
 0 -81 l 5
 0 31 l 5
0 -197 m 5
 1 -196 l 5
 59 -196 l 5
 60 -197 l 5
 60 -309 l 5
 59 -310 l 5
 1 -310 l 5x8020
 0 -309 l 5
 0 -197 l 5
60 829 m 5x0050
 61 830 l 5
 119 830 l 5
 120 829 l 5
 120 717 l 5
 119 716 l 5
 61 716 l 5
 60 717 l 5
 60 829 l 5x0050
120 716 m 5x0048
 120 716 l 5x0048
540 -83 m 5x400010
 541 -82 l 5
 599 -82 l 5
 600 -83 l 5
 600 -195 l 5
 599 -196 l 5
 541 -196 l 5
 540 -195 l 5
 540 -83 l 5x400010
480 -197 m 5x800020
 481 -196 l 5
 539 -196 l 5
 540 -197 l 5
 540 -309 l 5
 539 -310 l 5
 481 -310 l 5
 480 -309 l 5
 480 -197 l 5x800020
420 -83 m 5x400040
 421 -82 l 5
 479 -82 l 5
 480 -83 l 5
 480 -195 l 5
 479 -196 l 5
 421 -196 l 5
 420 -195 l 5
 420 -83 l 5x400040
360 -197 m 5x800080
 361 -196 l 5
 419 -196 l 5
 420 -197 l 5
 420 -309 l 5
 419 -310 l 5
 361 -310 l 5
 360 -309 l 5
 360 -197 l 5x800080
300 -83 m 5x4001
 301 -82 l 5
 359 -82 l 5
 360 -83 l 5
 360 -195 l 5
 359 -196 l 5
 301 -196 l 5
 300 -195 l 5
 300 -83 l 5x4001
240 -197 m 5x8002
 241 -196 l 5
 299 -196 l 5
 300 -197 l 5
 300 -309 l 5
 299 -310 l 5
 241 -310 l 5
 240 -309 l 5
 240 -197 l 5x8002
180 -83 m 5x4004
 181 -82 l 5
 239 -82 l 5
 240 -83 l 5
 240 -195 l 5
 239 -196 l 5
 181 -196 l 5
 180 -195 l 5
 180 -83 l 5x4004
120 -197 m 5x8008
 121 -196 l 5
 179 -196 l 5
 180 -197 l 5
 180 -309 l 5
 179 -310 l 5
 121 -310 l 5
 120 -309 l 5
 120 -197 l 5x8008
60 -83 m 5x4010
 61 -82 l 5
 119 -82 l 5
 120 -83 l 5
 120 -195 l 5
 119 -196 l 5
 61 -196 l 5
 60 -195 l 5
 60 -83 l 5x4010
540 145 m 5x100010
 541 146 l 5
 599 146 l 5
 600 145 l 5
 600 33 l 5
 599 32 l 5
 541 32 l 5
 540 33 l 5
 540 145 l 5x100010
480 31 m 5x200020
 481 32 l 5
 539 32 l 5
 540 31 l 5
 540 -81 l 5
 539 -82 l 5
 481 -82 l 5
 480 -81 l 5
 480 31 l 5x200020
420 145 m 5x100040
 421 146 l 5
 479 146 l 5
 480 145 l 5
 480 33 l 5
 479 32 l 5
 421 32 l 5
 420 33 l 5
 420 145 l 5x100040
360 31 m 5x200080
 361 32 l 5
 419 32 l 5
 420 31 l 5
 420 -81 l 5
 419 -82 l 5
 361 -82 l 5
 360 -81 l 5
 360 31 l 5x200080
300 145 m 5x1001
 301 146 l 5
 359 146 l 5
 360 145 l 5
 360 33 l 5
 359 32 l 5
 301 32 l 5
 300 33 l 5
 300 145 l 5x1001
240 31 m 5x2002
 241 32 l 5
 299 32 l 5
 300 31 l 5
 300 -81 l 5
 299 -82 l 5
 241 -82 l 5
 240 -81 l 5
 240 31 l 5x2002
180 145 m 5x1004
 181 146 l 5
 239 146 l 5
 240 145 l 5
 240 33 l 5
 239 32 l 5
 181 32 l 5
 180 33 l 5
 180 145 l 5x1004
120 31 m 5x2008
 121 32 l 5
 179 32 l 5
 180 31 l 5
 180 -81 l 5
 179 -82 l 5
 121 -82 l 5
 120 -81 l 5
 120 31 l 5x2008
60 145 m 5x1010
 61 146 l 5
 119 146 l 5
 120 145 l 5
 120 33 l 5
 119 32 l 5
 61 32 l 5
 60 33 l 5
 60 145 l 5x1010
540 373 m 5x040010
 541 374 l 5
 599 374 l 5
 600 373 l 5
 600 261 l 5
 599 260 l 5
 541 260 l 5
 540 261 l 5
 540 373 l 5x040010
480 259 m 5x080020
 481 260 l 5
 539 260 l 5
 540 259 l 5
 540 147 l 5
 539 146 l 5
 481 146 l 5
 480 147 l 5
 480 259 l 5x080020
420 373 m 5x040040
 421 374 l 5
 479 374 l 5
 480 373 l 5
 480 261 l 5
 479 260 l 5
 421 260 l 5
 420 261 l 5
 420 373 l 5x040040
360 259 m 5x080080
 361 260 l 5
 419 260 l 5
 420 259 l 5
 420 147 l 5
 419 146 l 5
 361 146 l 5
 360 147 l 5
 360 259 l 5x080080
300 373 m 5x0401
 301 374 l 5
 359 374 l 5
 360 373 l 5
 360 261 l 5
 359 260 l 5
 301 260 l 5
 300 261 l 5
 300 373 l 5x0401
240 259 m 5x0802
 241 260 l 5
 299 260 l 5
 300 259 l 5
 300 147 l 5
 299 146 l 5
 241 146 l 5
 240 147 l 5
 240 259 l 5x0802
180 373 m 5x0404
 181 374 l 5
 239 374 l 5
 240 373 l 5
 240 261 l 5
 239 260 l 5
 181 260 l 5
 180 261 l 5
 180 373 l 5x0404
120 259 m 5x0808
 121 260 l 5
 179 260 l 5
 180 259 l 5
 180 147 l 5
 179 146 l 5
 121 146 l 5
 120 147 l 5
 120 259 l 5x0808
60 373 m 5x0410
 61 374 l 5
 119 374 l 5
 120 373 l 5
 120 261 l 5
 119 260 l 5
 61 260 l 5
 60 261 l 5
 60 373 l 5x0410
540 601 m 5x010010
 541 602 l 5
 599 602 l 5
 600 601 l 5
 600 489 l 5
 599 488 l 5
 541 488 l 5
 540 489 l 5
 540 601 l 5x010010
480 487 m 5x020020
 481 488 l 5
 539 488 l 5
 540 487 l 5
 540 375 l 5
 539 374 l 5
 481 374 l 5
 480 375 l 5
 480 487 l 5x020020
420 601 m 5x010040
 421 602 l 5
 479 602 l 5
 480 601 l 5
 480 489 l 5
 479 488 l 5
 421 488 l 5
 420 489 l 5
 420 601 l 5x010040
360 487 m 5x020080
 361 488 l 5
 419 488 l 5
 420 487 l 5
 420 375 l 5
 419 374 l 5
 361 374 l 5
 360 375 l 5
 360 487 l 5x020080
300 601 m 5x0101
 301 602 l 5
 359 602 l 5
 360 601 l 5
 360 489 l 5
 359 488 l 5
 301 488 l 5
 300 489 l 5
 300 601 l 5x0101
240 487 m 5x0202
 241 488 l 5
 299 488 l 5
 300 487 l 5
 300 375 l 5
 299 374 l 5
 241 374 l 5
 240 375 l 5
 240 487 l 5x0202
180 601 m 5x0104
 181 602 l 5
 239 602 l 5
 240 601 l 5
 240 489 l 5
 239 488 l 5
 181 488 l 5
 180 489 l 5
 180 601 l 5x0104
120 487 m 5x0208
 121 488 l 5
 179 488 l 5
 180 487 l 5
 180 375 l 5
 179 374 l 5
 121 374 l 5
 120 375 l 5
 120 487 l 5x0208
60 601 m 5x0110
 61 602 l 5
 119 602 l 5
 120 601 l 5
 120 489 l 5
 119 488 l 5
 61 488 l 5
 60 489 l 5
 60 601 l 5x0110
540 829 m 5x004010
 541 830 l 5
 599 830 l 5
 600 829 l 5
 600 717 l 5
 599 716 l 5
 541 716 l 5
 540 717 l 5
 540 829 l 5x004010
480 715 m 5x008020
 481 716 l 5
 539 716 l 5
 540 715 l 5
 540 603 l 5
 539 602 l 5
 481 602 l 5
 480 603 l 5
 480 715 l 5x008020
420 829 m 5x004040
 421 830 l 5
 479 830 l 5
 480 829 l 5
 480 717 l 5
 479 716 l 5
 421 716 l 5
 420 717 l 5
 420 829 l 5x004040
360 715 m 5x008080
 361 716 l 5
 419 716 l 5
 420 715 l 5
 420 603 l 5
 419 602 l 5
 361 602 l 5
 360 603 l 5
 360 715 l 5x008080
300 829 m 5x0041
 301 830 l 5
 359 830 l 5
 360 829 l 5
 360 717 l 5
 359 716 l 5
 301 716 l 5
 300 717 l 5
 300 829 l 5x0041
240 715 m 5x0082
 241 716 l 5
 299 716 l 5
 300 715 l 5
 300 603 l 5
 299 602 l 5
 241 602 l 5
 240 603 l 5
 240 715 l 5x0082
180 829 m 5x0044
 181 830 l 5
 239 830 l 5
 240 829 l 5
 240 717 l 5
 239 716 l 5
 181 716 l 5
 180 717 l 5
 180 829 l 5x0044
120 715 m 5x0088
 121 716 l 5
 179 716 l 5
 180 715 l 5
 180 603 l 5
 179 602 l 5
 121 602 l 5
 120 603 l 5
 120 715 l 5x0088
EndSplineSet
EndChar

StartChar: u1FB8F
Encoding: 129935 129935 190
Width: 600
VWidth: -46
Flags: W
HStem: -275 114<1 59 121 179 241 299 361 419 481 539> -161 114<61 119 181 239 301 359 421 479 541 599> -47 114<1 59 121 179 241 299 361 419 481 539> 67 114<61 119 181 239 301 359 421 479 541 599> 181 114<1 59 121 179 241 299 361 419 481 539>
VStem: 0 60<-274 -162 -46 66 182 294> 60 60<-160 -48 68 180> 120 60<-274 -162 -46 66 182 294> 180 60<-160 -48 68 180> 240 60<-274 -162 -46 66 182 294> 300 60<-160 -48 68 180> 360 60<-274 -162 -46 66 182 294> 420 60<-160 -48 68 180> 480 60<-274 -162 -46 66 182 294> 540 60<-160 -48 68 180>
LayerCount: 2
Fore
SplineSet
0 294 m 1x0c
 1 295 l 1
 59 295 l 1
 60 294 l 1
 60 182 l 1
 59 181 l 1
 1 181 l 1
 0 182 l 1
 0 294 l 1x0c
0 66 m 1
 1 67 l 1
 59 67 l 1
 60 66 l 1
 60 -46 l 1
 59 -47 l 1
 1 -47 l 1x24
 0 -46 l 1
 0 66 l 1
0 -162 m 1
 1 -161 l 1
 59 -161 l 1
 60 -162 l 1
 60 -274 l 1
 59 -275 l 1
 1 -275 l 1x84
 0 -274 l 1
 0 -162 l 1
540 -48 m 1x4002
 541 -47 l 1
 599 -47 l 1
 600 -48 l 1
 600 -160 l 1
 599 -161 l 1
 541 -161 l 1
 540 -160 l 1
 540 -48 l 1x4002
480 -162 m 1x8004
 481 -161 l 1
 539 -161 l 1
 540 -162 l 1
 540 -274 l 1
 539 -275 l 1
 481 -275 l 1
 480 -274 l 1
 480 -162 l 1x8004
420 -48 m 1x4008
 421 -47 l 1
 479 -47 l 1
 480 -48 l 1
 480 -160 l 1
 479 -161 l 1
 421 -161 l 1
 420 -160 l 1
 420 -48 l 1x4008
360 -162 m 1x8010
 361 -161 l 1
 419 -161 l 1
 420 -162 l 1
 420 -274 l 1
 419 -275 l 1
 361 -275 l 1
 360 -274 l 1
 360 -162 l 1x8010
300 -48 m 1x4020
 301 -47 l 1
 359 -47 l 1
 360 -48 l 1
 360 -160 l 1
 359 -161 l 1
 301 -161 l 1
 300 -160 l 1
 300 -48 l 1x4020
240 -162 m 1x8040
 241 -161 l 1
 299 -161 l 1
 300 -162 l 1
 300 -274 l 1
 299 -275 l 1
 241 -275 l 1
 240 -274 l 1
 240 -162 l 1x8040
180 -48 m 1x4080
 181 -47 l 1
 239 -47 l 1
 240 -48 l 1
 240 -160 l 1
 239 -161 l 1
 181 -161 l 1
 180 -160 l 1
 180 -48 l 1x4080
120 -162 m 1x81
 121 -161 l 1
 179 -161 l 1
 180 -162 l 1
 180 -274 l 1
 179 -275 l 1
 121 -275 l 1
 120 -274 l 1
 120 -162 l 1x81
60 -48 m 1x42
 61 -47 l 1
 119 -47 l 1
 120 -48 l 1
 120 -160 l 1
 119 -161 l 1
 61 -161 l 1
 60 -160 l 1
 60 -48 l 1x42
540 180 m 1x1002
 541 181 l 1
 599 181 l 1
 600 180 l 1
 600 68 l 1
 599 67 l 1
 541 67 l 1
 540 68 l 1
 540 180 l 1x1002
480 66 m 1x2004
 481 67 l 1
 539 67 l 1
 540 66 l 1
 540 -46 l 1
 539 -47 l 1
 481 -47 l 1
 480 -46 l 1
 480 66 l 1x2004
420 180 m 1x1008
 421 181 l 1
 479 181 l 1
 480 180 l 1
 480 68 l 1
 479 67 l 1
 421 67 l 1
 420 68 l 1
 420 180 l 1x1008
360 66 m 1x2010
 361 67 l 1
 419 67 l 1
 420 66 l 1
 420 -46 l 1
 419 -47 l 1
 361 -47 l 1
 360 -46 l 1
 360 66 l 1x2010
300 180 m 1x1020
 301 181 l 1
 359 181 l 1
 360 180 l 1
 360 68 l 1
 359 67 l 1
 301 67 l 1
 300 68 l 1
 300 180 l 1x1020
240 66 m 1x2040
 241 67 l 1
 299 67 l 1
 300 66 l 1
 300 -46 l 1
 299 -47 l 1
 241 -47 l 1
 240 -46 l 1
 240 66 l 1x2040
180 180 m 1x1080
 181 181 l 1
 239 181 l 1
 240 180 l 1
 240 68 l 1
 239 67 l 1
 181 67 l 1
 180 68 l 1
 180 180 l 1x1080
120 66 m 1x21
 121 67 l 1
 179 67 l 1
 180 66 l 1
 180 -46 l 1
 179 -47 l 1
 121 -47 l 1
 120 -46 l 1
 120 66 l 1x21
60 180 m 1x12
 61 181 l 1
 119 181 l 1
 120 180 l 1
 120 68 l 1
 119 67 l 1
 61 67 l 1
 60 68 l 1
 60 180 l 1x12
480 294 m 1x0804
 481 295 l 1
 539 295 l 1
 540 294 l 1
 540 182 l 1
 539 181 l 1
 481 181 l 1
 480 182 l 1
 480 294 l 1x0804
360 294 m 1x0810
 361 295 l 1
 419 295 l 1
 420 294 l 1
 420 182 l 1
 419 181 l 1
 361 181 l 1
 360 182 l 1
 360 294 l 1x0810
240 294 m 1x0840
 241 295 l 1
 299 295 l 1
 300 294 l 1
 300 182 l 1
 299 181 l 1
 241 181 l 1
 240 182 l 1
 240 294 l 1x0840
120 294 m 1x09
 121 295 l 1
 179 295 l 1
 180 294 l 1
 180 182 l 1
 179 181 l 1
 121 181 l 1
 120 182 l 1
 120 294 l 1x09
EndSplineSet
EndChar

StartChar: u1FB8C
Encoding: 129932 129932 191
Width: 600
VWidth: -81
Flags: W
HStem: -310 114<1 59 121 179 241 299> -196 114<61 119 181 239> -82 114<1 59 121 179 241 299> 32 114<61 119 181 239> 146 114<1 59 121 179 241 299> 260 114<61 119 181 239> 374 114<1 59 121 179 241 299> 488 114<61 119 181 239> 602 114<1 59 121 179 241 299> 716 114<61 119 181 239>
VStem: 0 60<-309 -197 -81 31 147 259 375 487 603 715> 60 60<-195 -83 33 145 261 373 489 601 717 829> 120 60<-309 -197 -81 31 147 259 375 487 603 715> 180 60<-195 -83 33 145 261 373 489 601 717 829> 240 60<-309 -197 -81 31 147 259 375 487 603 715>
LayerCount: 2
Fore
SplineSet
0 715 m 1x00a0
 1 716 l 1
 59 716 l 1
 60 715 l 1
 60 603 l 1
 59 602 l 1
 1 602 l 1
 0 603 l 1
 0 715 l 1x00a0
0 487 m 1
 1 488 l 1
 59 488 l 1
 60 487 l 1
 60 375 l 1
 59 374 l 1
 1 374 l 1x0220
 0 375 l 1
 0 487 l 1
0 259 m 1
 1 260 l 1
 59 260 l 1
 60 259 l 1
 60 147 l 1
 59 146 l 1
 1 146 l 1x0820
 0 147 l 1
 0 259 l 1
0 31 m 1
 1 32 l 1
 59 32 l 1
 60 31 l 1
 60 -81 l 1
 59 -82 l 1
 1 -82 l 1x2020
 0 -81 l 1
 0 31 l 1
0 -197 m 1
 1 -196 l 1
 59 -196 l 1
 60 -197 l 1
 60 -309 l 1
 59 -310 l 1
 1 -310 l 1x8020
 0 -309 l 1
 0 -197 l 1
60 829 m 1x0050
 61 830 l 1
 119 830 l 1
 120 829 l 1
 120 717 l 1
 119 716 l 1
 61 716 l 1
 60 717 l 1
 60 829 l 1x0050
120 716 m 1x0048
 120 716 l 1x0048
240 -197 m 1x8002
 241 -196 l 1
 299 -196 l 1
 300 -197 l 1
 300 -309 l 1
 299 -310 l 1
 241 -310 l 1
 240 -309 l 1
 240 -197 l 1x8002
180 -83 m 1x4004
 181 -82 l 1
 239 -82 l 1
 240 -83 l 1
 240 -195 l 1
 239 -196 l 1
 181 -196 l 1
 180 -195 l 1
 180 -83 l 1x4004
120 -197 m 1x8008
 121 -196 l 1
 179 -196 l 1
 180 -197 l 1
 180 -309 l 1
 179 -310 l 1
 121 -310 l 1
 120 -309 l 1
 120 -197 l 1x8008
60 -83 m 1x4010
 61 -82 l 1
 119 -82 l 1
 120 -83 l 1
 120 -195 l 1
 119 -196 l 1
 61 -196 l 1
 60 -195 l 1
 60 -83 l 1x4010
240 31 m 1x2002
 241 32 l 1
 299 32 l 1
 300 31 l 1
 300 -81 l 1
 299 -82 l 1
 241 -82 l 1
 240 -81 l 1
 240 31 l 1x2002
180 145 m 1x1004
 181 146 l 1
 239 146 l 1
 240 145 l 1
 240 33 l 1
 239 32 l 1
 181 32 l 1
 180 33 l 1
 180 145 l 1x1004
120 31 m 1x2008
 121 32 l 1
 179 32 l 1
 180 31 l 1
 180 -81 l 1
 179 -82 l 1
 121 -82 l 1
 120 -81 l 1
 120 31 l 1x2008
60 145 m 1x1010
 61 146 l 1
 119 146 l 1
 120 145 l 1
 120 33 l 1
 119 32 l 1
 61 32 l 1
 60 33 l 1
 60 145 l 1x1010
240 259 m 1x0802
 241 260 l 1
 299 260 l 1
 300 259 l 1
 300 147 l 1
 299 146 l 1
 241 146 l 1
 240 147 l 1
 240 259 l 1x0802
180 373 m 1x0404
 181 374 l 1
 239 374 l 1
 240 373 l 1
 240 261 l 1
 239 260 l 1
 181 260 l 1
 180 261 l 1
 180 373 l 1x0404
120 259 m 1x0808
 121 260 l 1
 179 260 l 1
 180 259 l 1
 180 147 l 1
 179 146 l 1
 121 146 l 1
 120 147 l 1
 120 259 l 1x0808
60 373 m 1x0410
 61 374 l 1
 119 374 l 1
 120 373 l 1
 120 261 l 1
 119 260 l 1
 61 260 l 1
 60 261 l 1
 60 373 l 1x0410
240 487 m 1x0202
 241 488 l 1
 299 488 l 1
 300 487 l 1
 300 375 l 1
 299 374 l 1
 241 374 l 1
 240 375 l 1
 240 487 l 1x0202
180 601 m 1x0104
 181 602 l 1
 239 602 l 1
 240 601 l 1
 240 489 l 1
 239 488 l 1
 181 488 l 1
 180 489 l 1
 180 601 l 1x0104
120 487 m 1x0208
 121 488 l 1
 179 488 l 1
 180 487 l 1
 180 375 l 1
 179 374 l 1
 121 374 l 1
 120 375 l 1
 120 487 l 1x0208
60 601 m 1x0110
 61 602 l 1
 119 602 l 1
 120 601 l 1
 120 489 l 1
 119 488 l 1
 61 488 l 1
 60 489 l 1
 60 601 l 1x0110
240 715 m 1x0082
 241 716 l 1
 299 716 l 1
 300 715 l 1
 300 603 l 1
 299 602 l 1
 241 602 l 1
 240 603 l 1
 240 715 l 1x0082
180 829 m 1x0044
 181 830 l 1
 239 830 l 1
 240 829 l 1
 240 717 l 1
 239 716 l 1
 181 716 l 1
 180 717 l 1
 180 829 l 1x0044
120 715 m 1x0088
 121 716 l 1
 179 716 l 1
 180 715 l 1
 180 603 l 1
 179 602 l 1
 121 602 l 1
 120 603 l 1
 120 715 l 1x0088
EndSplineSet
EndChar

StartChar: u1FB8D
Encoding: 129933 129933 192
Width: 600
VWidth: -81
Flags: W
HStem: -310 114<361 419 481 539> -196 114<301 359 421 479 541 599> -82 114<361 419 481 539> 32 114<301 359 421 479 541 599> 146 114<361 419 481 539> 260 114<301 359 421 479 541 599> 374 114<361 419 481 539> 488 114<301 359 421 479 541 599> 602 114<361 419 481 539> 716 114<301 359 421 479 541 599>
VStem: 300 60<-195 -83 33 145 261 373 489 601 717 829> 360 60<-309 -197 -81 31 147 259 375 487 603 715> 420 60<-195 -83 33 145 261 373 489 601 717 829> 480 60<-309 -197 -81 31 147 259 375 487 603 715> 540 60<-195 -83 33 145 261 373 489 601 717 829>
LayerCount: 2
Fore
SplineSet
540 -83 m 1x4002
 541 -82 l 1
 599 -82 l 1
 600 -83 l 1
 600 -195 l 1
 599 -196 l 1
 541 -196 l 1
 540 -195 l 1
 540 -83 l 1x4002
480 -197 m 1x8004
 481 -196 l 1
 539 -196 l 1
 540 -197 l 1
 540 -309 l 1
 539 -310 l 1
 481 -310 l 1
 480 -309 l 1
 480 -197 l 1x8004
420 -83 m 1x4008
 421 -82 l 1
 479 -82 l 1
 480 -83 l 1
 480 -195 l 1
 479 -196 l 1
 421 -196 l 1
 420 -195 l 1
 420 -83 l 1x4008
360 -197 m 1x8010
 361 -196 l 1
 419 -196 l 1
 420 -197 l 1
 420 -309 l 1
 419 -310 l 1
 361 -310 l 1
 360 -309 l 1
 360 -197 l 1x8010
300 -83 m 1x4020
 301 -82 l 1
 359 -82 l 1
 360 -83 l 1
 360 -195 l 1
 359 -196 l 1
 301 -196 l 1
 300 -195 l 1
 300 -83 l 1x4020
540 145 m 1x1002
 541 146 l 1
 599 146 l 1
 600 145 l 1
 600 33 l 1
 599 32 l 1
 541 32 l 1
 540 33 l 1
 540 145 l 1x1002
480 31 m 1x2004
 481 32 l 1
 539 32 l 1
 540 31 l 1
 540 -81 l 1
 539 -82 l 1
 481 -82 l 1
 480 -81 l 1
 480 31 l 1x2004
420 145 m 1x1008
 421 146 l 1
 479 146 l 1
 480 145 l 1
 480 33 l 1
 479 32 l 1
 421 32 l 1
 420 33 l 1
 420 145 l 1x1008
360 31 m 1x2010
 361 32 l 1
 419 32 l 1
 420 31 l 1
 420 -81 l 1
 419 -82 l 1
 361 -82 l 1
 360 -81 l 1
 360 31 l 1x2010
300 145 m 1x1020
 301 146 l 1
 359 146 l 1
 360 145 l 1
 360 33 l 1
 359 32 l 1
 301 32 l 1
 300 33 l 1
 300 145 l 1x1020
540 373 m 1x0402
 541 374 l 1
 599 374 l 1
 600 373 l 1
 600 261 l 1
 599 260 l 1
 541 260 l 1
 540 261 l 1
 540 373 l 1x0402
480 259 m 1x0804
 481 260 l 1
 539 260 l 1
 540 259 l 1
 540 147 l 1
 539 146 l 1
 481 146 l 1
 480 147 l 1
 480 259 l 1x0804
420 373 m 1x0408
 421 374 l 1
 479 374 l 1
 480 373 l 1
 480 261 l 1
 479 260 l 1
 421 260 l 1
 420 261 l 1
 420 373 l 1x0408
360 259 m 1x0810
 361 260 l 1
 419 260 l 1
 420 259 l 1
 420 147 l 1
 419 146 l 1
 361 146 l 1
 360 147 l 1
 360 259 l 1x0810
300 373 m 1x0420
 301 374 l 1
 359 374 l 1
 360 373 l 1
 360 261 l 1
 359 260 l 1
 301 260 l 1
 300 261 l 1
 300 373 l 1x0420
540 601 m 1x0102
 541 602 l 1
 599 602 l 1
 600 601 l 1
 600 489 l 1
 599 488 l 1
 541 488 l 1
 540 489 l 1
 540 601 l 1x0102
480 487 m 1x0204
 481 488 l 1
 539 488 l 1
 540 487 l 1
 540 375 l 1
 539 374 l 1
 481 374 l 1
 480 375 l 1
 480 487 l 1x0204
420 601 m 1x0108
 421 602 l 1
 479 602 l 1
 480 601 l 1
 480 489 l 1
 479 488 l 1
 421 488 l 1
 420 489 l 1
 420 601 l 1x0108
360 487 m 1x0210
 361 488 l 1
 419 488 l 1
 420 487 l 1
 420 375 l 1
 419 374 l 1
 361 374 l 1
 360 375 l 1
 360 487 l 1x0210
300 601 m 1x0120
 301 602 l 1
 359 602 l 1
 360 601 l 1
 360 489 l 1
 359 488 l 1
 301 488 l 1
 300 489 l 1
 300 601 l 1x0120
540 829 m 1x0042
 541 830 l 1
 599 830 l 1
 600 829 l 1
 600 717 l 1
 599 716 l 1
 541 716 l 1
 540 717 l 1
 540 829 l 1x0042
480 715 m 1x0084
 481 716 l 1
 539 716 l 1
 540 715 l 1
 540 603 l 1
 539 602 l 1
 481 602 l 1
 480 603 l 1
 480 715 l 1x0084
420 829 m 1x0048
 421 830 l 1
 479 830 l 1
 480 829 l 1
 480 717 l 1
 479 716 l 1
 421 716 l 1
 420 717 l 1
 420 829 l 1x0048
360 715 m 1x0090
 361 716 l 1
 419 716 l 1
 420 715 l 1
 420 603 l 1
 419 602 l 1
 361 602 l 1
 360 603 l 1
 360 715 l 1x0090
300 829 m 1x0060
 301 830 l 1
 359 830 l 1
 360 829 l 1
 360 717 l 1
 359 716 l 1
 301 716 l 1
 300 717 l 1
 300 829 l 1x0060
EndSplineSet
EndChar

StartChar: u1FB8E
Encoding: 129934 129934 193
Width: 600
VWidth: -117
Flags: W
HStem: 225 114<61 119 181 239 301 359 421 479 541 599> 339 114<1 59 121 179 241 299 361 419 481 539> 453 114<61 119 181 239 301 359 421 479 541 599> 567 114<1 59 121 179 241 299 361 419 481 539> 681 114<61 119 181 239 301 359 421 479 541 599>
VStem: 0 60<340 452 568 680> 60 60<226 338 454 566 682 794> 120 60<340 452 568 680> 180 60<226 338 454 566 682 794> 240 60<340 452 568 680> 300 60<226 338 454 566 682 794> 360 60<340 452 568 680> 420 60<226 338 454 566 682 794> 480 60<340 452 568 680> 540 60<226 338 454 566 682 794>
LayerCount: 2
Fore
SplineSet
0 680 m 1x14
 1 681 l 1
 59 681 l 1
 60 680 l 1
 60 568 l 1
 59 567 l 1
 1 567 l 1
 0 568 l 1
 0 680 l 1x14
0 452 m 1
 1 453 l 1
 59 453 l 1
 60 452 l 1
 60 340 l 1
 59 339 l 1
 1 339 l 1x44
 0 340 l 1
 0 452 l 1
60 794 m 1x0a
 61 795 l 1
 119 795 l 1
 120 794 l 1
 120 682 l 1
 119 681 l 1
 61 681 l 1
 60 682 l 1
 60 794 l 1x0a
120 681 m 1x09
 120 681 l 1x09
540 338 m 1x8002
 541 339 l 1
 599 339 l 1
 600 338 l 1
 600 226 l 1
 599 225 l 1
 541 225 l 1
 540 226 l 1
 540 338 l 1x8002
420 338 m 1x8008
 421 339 l 1
 479 339 l 1
 480 338 l 1
 480 226 l 1
 479 225 l 1
 421 225 l 1
 420 226 l 1
 420 338 l 1x8008
300 338 m 1x8020
 301 339 l 1
 359 339 l 1
 360 338 l 1
 360 226 l 1
 359 225 l 1
 301 225 l 1
 300 226 l 1
 300 338 l 1x8020
180 338 m 1x8080
 181 339 l 1
 239 339 l 1
 240 338 l 1
 240 226 l 1
 239 225 l 1
 181 225 l 1
 180 226 l 1
 180 338 l 1x8080
60 338 m 1x82
 61 339 l 1
 119 339 l 1
 120 338 l 1
 120 226 l 1
 119 225 l 1
 61 225 l 1
 60 226 l 1
 60 338 l 1x82
540 566 m 1x2002
 541 567 l 1
 599 567 l 1
 600 566 l 1
 600 454 l 1
 599 453 l 1
 541 453 l 1
 540 454 l 1
 540 566 l 1x2002
480 452 m 1x4004
 481 453 l 1
 539 453 l 1
 540 452 l 1
 540 340 l 1
 539 339 l 1
 481 339 l 1
 480 340 l 1
 480 452 l 1x4004
420 566 m 1x2008
 421 567 l 1
 479 567 l 1
 480 566 l 1
 480 454 l 1
 479 453 l 1
 421 453 l 1
 420 454 l 1
 420 566 l 1x2008
360 452 m 1x4010
 361 453 l 1
 419 453 l 1
 420 452 l 1
 420 340 l 1
 419 339 l 1
 361 339 l 1
 360 340 l 1
 360 452 l 1x4010
300 566 m 1x2020
 301 567 l 1
 359 567 l 1
 360 566 l 1
 360 454 l 1
 359 453 l 1
 301 453 l 1
 300 454 l 1
 300 566 l 1x2020
240 452 m 1x4040
 241 453 l 1
 299 453 l 1
 300 452 l 1
 300 340 l 1
 299 339 l 1
 241 339 l 1
 240 340 l 1
 240 452 l 1x4040
180 566 m 1x2080
 181 567 l 1
 239 567 l 1
 240 566 l 1
 240 454 l 1
 239 453 l 1
 181 453 l 1
 180 454 l 1
 180 566 l 1x2080
120 452 m 1x41
 121 453 l 1
 179 453 l 1
 180 452 l 1
 180 340 l 1
 179 339 l 1
 121 339 l 1
 120 340 l 1
 120 452 l 1x41
60 566 m 1x22
 61 567 l 1
 119 567 l 1
 120 566 l 1
 120 454 l 1
 119 453 l 1
 61 453 l 1
 60 454 l 1
 60 566 l 1x22
540 794 m 1x0802
 541 795 l 1
 599 795 l 1
 600 794 l 1
 600 682 l 1
 599 681 l 1
 541 681 l 1
 540 682 l 1
 540 794 l 1x0802
480 680 m 1x1004
 481 681 l 1
 539 681 l 1
 540 680 l 1
 540 568 l 1
 539 567 l 1
 481 567 l 1
 480 568 l 1
 480 680 l 1x1004
420 794 m 1x0808
 421 795 l 1
 479 795 l 1
 480 794 l 1
 480 682 l 1
 479 681 l 1
 421 681 l 1
 420 682 l 1
 420 794 l 1x0808
360 680 m 1x1010
 361 681 l 1
 419 681 l 1
 420 680 l 1
 420 568 l 1
 419 567 l 1
 361 567 l 1
 360 568 l 1
 360 680 l 1x1010
300 794 m 1x0820
 301 795 l 1
 359 795 l 1
 360 794 l 1
 360 682 l 1
 359 681 l 1
 301 681 l 1
 300 682 l 1
 300 794 l 1x0820
240 680 m 1x1040
 241 681 l 1
 299 681 l 1
 300 680 l 1
 300 568 l 1
 299 567 l 1
 241 567 l 1
 240 568 l 1
 240 680 l 1x1040
180 794 m 1x0880
 181 795 l 1
 239 795 l 1
 240 794 l 1
 240 682 l 1
 239 681 l 1
 181 681 l 1
 180 682 l 1
 180 794 l 1x0880
120 680 m 1x11
 121 681 l 1
 179 681 l 1
 180 680 l 1
 180 568 l 1
 179 567 l 1
 121 567 l 1
 120 568 l 1
 120 680 l 1x11
EndSplineSet
EndChar

StartChar: u1FB91
Encoding: 129937 129937 194
Width: 600
VWidth: -81
Flags: W
HStem: -310 114<1 59 121 179 241 299 361 419 481 539> -196 114<61 119 181 239 301 359 421 479 541 599> -82 114<1 59 121 179 241 299 361 419 481 539> 32 114<61 119 181 239 301 359 421 479 541 599>
VStem: 0 60<-309 -197 -81 31 147 259> 60 60<-195 -83 33 145> 120 60<-309 -197 -81 31 147 259> 180 60<-195 -83 33 145> 240 60<-309 -197 -81 31 147 259> 300 60<-195 -83 33 145> 360 60<-309 -197 -81 31 147 259> 420 60<-195 -83 33 145> 480 60<-309 -197 -81 31 147 259> 540 60<-195 -83 33 145>
LayerCount: 2
Fore
SplineSet
60 145 m 1x14
 61 146 l 1
 119 146 l 1
 120 145 l 1
 120 33 l 1
 119 32 l 1
 61 32 l 1
 60 33 l 1
 60 145 l 1x14
120 31 m 1x22
 121 32 l 1
 179 32 l 1
 180 31 l 1
 180 -81 l 1
 179 -82 l 1
 121 -82 l 1
 120 -81 l 1
 120 31 l 1x22
180 145 m 1x11
 181 146 l 1
 239 146 l 1
 240 145 l 1
 240 33 l 1
 239 32 l 1
 181 32 l 1
 180 33 l 1
 180 145 l 1x11
240 31 m 1x2080
 241 32 l 1
 299 32 l 1
 300 31 l 1
 300 -81 l 1
 299 -82 l 1
 241 -82 l 1
 240 -81 l 1
 240 31 l 1x2080
300 145 m 1x1040
 301 146 l 1
 359 146 l 1
 360 145 l 1
 360 33 l 1
 359 32 l 1
 301 32 l 1
 300 33 l 1
 300 145 l 1x1040
360 31 m 1x2020
 361 32 l 1
 419 32 l 1
 420 31 l 1
 420 -81 l 1
 419 -82 l 1
 361 -82 l 1
 360 -81 l 1
 360 31 l 1x2020
420 145 m 1x1010
 421 146 l 1
 479 146 l 1
 480 145 l 1
 480 33 l 1
 479 32 l 1
 421 32 l 1
 420 33 l 1
 420 145 l 1x1010
480 31 m 1x2008
 481 32 l 1
 539 32 l 1
 540 31 l 1
 540 -81 l 1
 539 -82 l 1
 481 -82 l 1
 480 -81 l 1
 480 31 l 1x2008
540 145 m 1x1004
 541 146 l 1
 599 146 l 1
 600 145 l 1
 600 33 l 1
 599 32 l 1
 541 32 l 1
 540 33 l 1
 540 145 l 1x1004
60 -83 m 1x44
 61 -82 l 1
 119 -82 l 1
 120 -83 l 1
 120 -195 l 1
 119 -196 l 1
 61 -196 l 1
 60 -195 l 1
 60 -83 l 1x44
120 -197 m 1x82
 121 -196 l 1
 179 -196 l 1
 180 -197 l 1
 180 -309 l 1
 179 -310 l 1
 121 -310 l 1
 120 -309 l 1
 120 -197 l 1x82
180 -83 m 1x41
 181 -82 l 1
 239 -82 l 1
 240 -83 l 1
 240 -195 l 1
 239 -196 l 1
 181 -196 l 1
 180 -195 l 1
 180 -83 l 1x41
240 -197 m 1x8080
 241 -196 l 1
 299 -196 l 1
 300 -197 l 1
 300 -309 l 1
 299 -310 l 1
 241 -310 l 1
 240 -309 l 1
 240 -197 l 1x8080
300 -83 m 1x4040
 301 -82 l 1
 359 -82 l 1
 360 -83 l 1
 360 -195 l 1
 359 -196 l 1
 301 -196 l 1
 300 -195 l 1
 300 -83 l 1x4040
360 -197 m 1x8020
 361 -196 l 1
 419 -196 l 1
 420 -197 l 1
 420 -309 l 1
 419 -310 l 1
 361 -310 l 1
 360 -309 l 1
 360 -197 l 1x8020
420 -83 m 1x4010
 421 -82 l 1
 479 -82 l 1
 480 -83 l 1
 480 -195 l 1
 479 -196 l 1
 421 -196 l 1
 420 -195 l 1
 420 -83 l 1x4010
480 -197 m 1x8008
 481 -196 l 1
 539 -196 l 1
 540 -197 l 1
 540 -309 l 1
 539 -310 l 1
 481 -310 l 1
 480 -309 l 1
 480 -197 l 1x8008
540 -83 m 1x4004
 541 -82 l 1
 599 -82 l 1
 600 -83 l 1
 600 -195 l 1
 599 -196 l 1
 541 -196 l 1
 540 -195 l 1
 540 -83 l 1x4004
0 -197 m 1x88
 1 -196 l 1
 59 -196 l 1
 60 -197 l 1
 60 -309 l 1
 59 -310 l 1
 1 -310 l 1
 0 -309 l 1
 0 -197 l 1x88
0 31 m 1
 1 32 l 1
 59 32 l 1
 60 31 l 1
 60 -81 l 1
 59 -82 l 1
 1 -82 l 1x28
 0 -81 l 1
 0 31 l 1
0 830 m 1
 600 830 l 1
 600 260 l 1x1aa4
 541 260 l 1
 540 259 l 1
 540 147 l 1
 539 146 l 1
 481 146 l 1
 480 147 l 1
 480 259 l 1
 479 260 l 1
 421 260 l 1
 420 259 l 1
 420 147 l 1
 419 146 l 1
 361 146 l 1
 360 147 l 1
 360 259 l 1
 359 260 l 1
 301 260 l 1
 300 259 l 1
 300 147 l 1
 299 146 l 1
 241 146 l 1
 240 147 l 1
 240 259 l 1
 239 260 l 1
 181 260 l 1
 180 259 l 1
 180 147 l 1
 179 146 l 1
 121 146 l 1
 120 147 l 1
 120 259 l 1
 119 260 l 1
 61 260 l 1
 60 259 l 1
 60 147 l 1
 59 146 l 1
 1 146 l 1x1aa8
 0 147 l 1
 0 830 l 1
EndSplineSet
EndChar

StartChar: u1FB92
Encoding: 129938 129938 195
Width: 600
VWidth: -81
Flags: W
HStem: 374 114<1 59 121 179 241 299 361 419 481 539> 488 114<61 119 181 239 301 359 421 479 541 599> 602 114<1 59 121 179 241 299 361 419 481 539> 716 114<61 119 181 239 301 359 421 479 541 599>
VStem: 0 60<375 487 603 715> 60 60<261 373 489 601 717 829> 120 60<375 487 603 715> 180 60<261 373 489 601 717 829> 240 60<375 487 603 715> 300 60<261 373 489 601 717 829> 360 60<375 487 603 715> 420 60<261 373 489 601 717 829> 480 60<375 487 603 715> 540 60<261 373 489 601 717 829>
LayerCount: 2
Fore
SplineSet
120 715 m 1x22
 121 716 l 1
 179 716 l 1
 180 715 l 1
 180 603 l 1
 179 602 l 1
 121 602 l 1
 120 603 l 1
 120 715 l 1x22
180 829 m 1x11
 181 830 l 1
 239 830 l 1
 240 829 l 1
 240 717 l 1
 239 716 l 1
 181 716 l 1
 180 717 l 1
 180 829 l 1x11
240 715 m 1x2080
 241 716 l 1
 299 716 l 1
 300 715 l 1
 300 603 l 1
 299 602 l 1
 241 602 l 1
 240 603 l 1
 240 715 l 1x2080
300 829 m 1x1040
 301 830 l 1
 359 830 l 1
 360 829 l 1
 360 717 l 1
 359 716 l 1
 301 716 l 1
 300 717 l 1
 300 829 l 1x1040
360 715 m 1x2020
 361 716 l 1
 419 716 l 1
 420 715 l 1
 420 603 l 1
 419 602 l 1
 361 602 l 1
 360 603 l 1
 360 715 l 1x2020
420 829 m 1x1010
 421 830 l 1
 479 830 l 1
 480 829 l 1
 480 717 l 1
 479 716 l 1
 421 716 l 1
 420 717 l 1
 420 829 l 1x1010
480 715 m 1x2008
 481 716 l 1
 539 716 l 1
 540 715 l 1
 540 603 l 1
 539 602 l 1
 481 602 l 1
 480 603 l 1
 480 715 l 1x2008
540 829 m 1x1004
 541 830 l 1
 599 830 l 1
 600 829 l 1
 600 717 l 1
 599 716 l 1
 541 716 l 1
 540 717 l 1
 540 829 l 1x1004
60 601 m 1x44
 61 602 l 1
 119 602 l 1
 120 601 l 1
 120 489 l 1
 119 488 l 1
 61 488 l 1
 60 489 l 1
 60 601 l 1x44
120 487 m 1x82
 121 488 l 1
 179 488 l 1
 180 487 l 1
 180 375 l 1
 179 374 l 1
 121 374 l 1
 120 375 l 1
 120 487 l 1x82
180 601 m 1x41
 181 602 l 1
 239 602 l 1
 240 601 l 1
 240 489 l 1
 239 488 l 1
 181 488 l 1
 180 489 l 1
 180 601 l 1x41
240 487 m 1x8080
 241 488 l 1
 299 488 l 1
 300 487 l 1
 300 375 l 1
 299 374 l 1
 241 374 l 1
 240 375 l 1
 240 487 l 1x8080
300 601 m 1x4040
 301 602 l 1
 359 602 l 1
 360 601 l 1
 360 489 l 1
 359 488 l 1
 301 488 l 1
 300 489 l 1
 300 601 l 1x4040
360 487 m 1x8020
 361 488 l 1
 419 488 l 1
 420 487 l 1
 420 375 l 1
 419 374 l 1
 361 374 l 1
 360 375 l 1
 360 487 l 1x8020
420 601 m 1x4010
 421 602 l 1
 479 602 l 1
 480 601 l 1
 480 489 l 1
 479 488 l 1
 421 488 l 1
 420 489 l 1
 420 601 l 1x4010
480 487 m 1x8008
 481 488 l 1
 539 488 l 1
 540 487 l 1
 540 375 l 1
 539 374 l 1
 481 374 l 1
 480 375 l 1
 480 487 l 1x8008
540 601 m 1x4004
 541 602 l 1
 599 602 l 1
 600 601 l 1
 600 489 l 1
 599 488 l 1
 541 488 l 1
 540 489 l 1
 540 601 l 1x4004
60 373 m 1x84
 61 374 l 1
 119 374 l 1
 120 373 l 1
 120 261 l 1x84
 119 260 l 1
 181 260 l 1
 180 261 l 1
 180 373 l 1
 181 374 l 1
 239 374 l 1
 240 373 l 1
 240 261 l 1
 239 260 l 1
 301 260 l 1
 300 261 l 1
 300 373 l 1
 301 374 l 1
 359 374 l 1
 360 373 l 1
 360 261 l 1
 359 260 l 1
 421 260 l 1
 420 261 l 1
 420 373 l 1
 421 374 l 1
 479 374 l 1
 480 373 l 1
 480 261 l 1
 479 260 l 1
 541 260 l 1
 540 261 l 1
 540 373 l 1
 541 374 l 1
 599 374 l 1
 600 373 l 1
 600 261 l 1
 599 260 l 1
 600 260 l 1
 600 -310 l 5
 0 -310 l 5
 0 260 l 1x8954
 61 260 l 1
 60 261 l 1
 60 373 l 1x84
60 829 m 1
 61 830 l 1
 119 830 l 1
 120 829 l 1
 120 717 l 1
 119 716 l 1
 61 716 l 1x14
 60 717 l 1
 60 829 l 1
0 487 m 1x88
 1 488 l 1
 59 488 l 1
 60 487 l 1
 60 375 l 1
 59 374 l 1
 1 374 l 1
 0 375 l 1
 0 487 l 1x88
0 715 m 1
 1 716 l 1
 59 716 l 1
 60 715 l 1
 60 603 l 1
 59 602 l 1
 1 602 l 1x28
 0 603 l 1
 0 715 l 1
EndSplineSet
EndChar

StartChar: u1FB94
Encoding: 129940 129940 196
Width: 600
VWidth: -81
Flags: W
HStem: -310 114<1 59 121 179 241 299> -196 114<61 119 181 239> -82 114<1 59 121 179 241 299> 32 114<61 119 181 239> 146 114<1 59 121 179 241 299> 260 114<61 119 181 239> 374 114<1 59 121 179 241 299> 488 114<61 119 181 239> 602 114<1 59 121 179 241 299> 716 114<61 119 181 239>
VStem: 0 60<-309 -197 -81 31 147 259 375 487 603 715> 60 60<-195 -83 33 145 261 373 489 601 717 829> 120 60<-309 -197 -81 31 147 259 375 487 603 715> 180 60<-195 -83 33 145 261 373 489 601 717 829> 240 360<-309 -197 -81 31 147 259 375 487 603 715> 300 300<-195 -83 33 145 261 373 489 601 717 830>
LayerCount: 2
Fore
SplineSet
120 715 m 1x0088
 121 716 l 1
 179 716 l 1
 180 715 l 1
 180 603 l 1
 179 602 l 1
 121 602 l 1
 120 603 l 1
 120 715 l 1x0088
180 829 m 1x0044
 181 830 l 1
 239 830 l 1
 240 829 l 1
 240 717 l 1
 239 716 l 1
 181 716 l 1
 180 717 l 1
 180 829 l 1x0044
240 715 m 1xaa82
 241 716 l 1
 299 716 l 1xaa82
 300 717 l 5
 300 830 l 1
 600 830 l 1
 600 -310 l 1x8041
 241 -310 l 1
 240 -309 l 1
 240 -197 l 1x8042
 241 -196 l 1
 299 -196 l 1
 300 -195 l 1
 300 -83 l 1x8041
 299 -82 l 1
 241 -82 l 1
 240 -81 l 1
 240 31 l 1xa042
 241 32 l 1
 299 32 l 1
 300 33 l 1
 300 145 l 1xa041
 299 146 l 1
 241 146 l 1
 240 147 l 1
 240 259 l 1xa842
 241 260 l 1
 299 260 l 1
 300 261 l 1
 300 373 l 1xa841
 299 374 l 1
 241 374 l 1
 240 375 l 1
 240 487 l 1xaa42
 241 488 l 1
 299 488 l 1
 300 489 l 1
 300 601 l 1xaa41
 299 602 l 1
 241 602 l 1
 240 603 l 1
 240 715 l 1xaa82
60 601 m 1x0110
 61 602 l 1
 119 602 l 1
 120 601 l 1
 120 489 l 1
 119 488 l 1
 61 488 l 1
 60 489 l 1
 60 601 l 1x0110
120 487 m 1x0208
 121 488 l 1
 179 488 l 1
 180 487 l 1
 180 375 l 1
 179 374 l 1
 121 374 l 1
 120 375 l 1
 120 487 l 1x0208
180 601 m 1x0104
 181 602 l 1
 239 602 l 1
 240 601 l 1
 240 489 l 1
 239 488 l 1
 181 488 l 1
 180 489 l 1
 180 601 l 1x0104
60 373 m 1x0410
 61 374 l 1
 119 374 l 1
 120 373 l 1
 120 261 l 1
 119 260 l 1
 61 260 l 1
 60 261 l 1
 60 373 l 1x0410
120 259 m 1x0808
 121 260 l 1
 179 260 l 1
 180 259 l 1
 180 147 l 1
 179 146 l 1
 121 146 l 1
 120 147 l 1
 120 259 l 1x0808
180 373 m 1x0404
 181 374 l 1
 239 374 l 1
 240 373 l 1
 240 261 l 1
 239 260 l 1
 181 260 l 1
 180 261 l 1
 180 373 l 1x0404
60 145 m 1x1010
 61 146 l 1
 119 146 l 1
 120 145 l 1
 120 33 l 1
 119 32 l 1
 61 32 l 1
 60 33 l 1
 60 145 l 1x1010
120 31 m 1x2008
 121 32 l 1
 179 32 l 1
 180 31 l 1
 180 -81 l 1
 179 -82 l 1
 121 -82 l 1
 120 -81 l 1
 120 31 l 1x2008
180 145 m 1x1004
 181 146 l 1
 239 146 l 1
 240 145 l 1
 240 33 l 1
 239 32 l 1
 181 32 l 1
 180 33 l 1
 180 145 l 1x1004
60 -83 m 1x4010
 61 -82 l 1
 119 -82 l 1
 120 -83 l 1
 120 -195 l 1
 119 -196 l 1
 61 -196 l 1
 60 -195 l 1
 60 -83 l 1x4010
120 -197 m 1x8008
 121 -196 l 1
 179 -196 l 1
 180 -197 l 1
 180 -309 l 1
 179 -310 l 1
 121 -310 l 1
 120 -309 l 1
 120 -197 l 1x8008
180 -83 m 1x4004
 181 -82 l 1
 239 -82 l 1
 240 -83 l 1
 240 -195 l 1
 239 -196 l 1
 181 -196 l 1
 180 -195 l 1
 180 -83 l 1x4004
60 829 m 1x0050
 61 830 l 1
 119 830 l 1
 120 829 l 1
 120 717 l 1
 119 716 l 1
 61 716 l 1
 60 717 l 1
 60 829 l 1x0050
0 -197 m 1x8020
 1 -196 l 1
 59 -196 l 1
 60 -197 l 1
 60 -309 l 1
 59 -310 l 1
 1 -310 l 1
 0 -309 l 1
 0 -197 l 1x8020
0 31 m 1
 1 32 l 1
 59 32 l 1
 60 31 l 1
 60 -81 l 1
 59 -82 l 1
 1 -82 l 1x2020
 0 -81 l 1
 0 31 l 1
0 259 m 1
 1 260 l 1
 59 260 l 1
 60 259 l 1
 60 147 l 1
 59 146 l 1
 1 146 l 1x0820
 0 147 l 1
 0 259 l 1
0 487 m 1
 1 488 l 1
 59 488 l 1
 60 487 l 1
 60 375 l 1
 59 374 l 1
 1 374 l 1x0220
 0 375 l 1
 0 487 l 1
0 715 m 1
 1 716 l 1
 59 716 l 1
 60 715 l 1
 60 603 l 1
 59 602 l 1
 1 602 l 1x00a0
 0 603 l 1
 0 715 l 1
EndSplineSet
EndChar

StartChar: u1FB9C
Encoding: 129948 129948 197
Width: 600
VWidth: -81
Flags: W
HStem: -310 114<1 59> -196 114<61 119> -82 114<1 59 121 179> 32 114<61 119 181 239> 146 114<1 59 121 179 241 299> 260 114<61 119 181 239 301 359> 374 114<1 59 121 179 241 299 361 419> 488 114<61 119 181 239 301 359 421 479> 602 114<1 59 121 179 241 299 361 419 481 539> 716 114<61 119 181 239 301 359 421 479 541 599>
VStem: 0 60<-309 -197 -81 31 147 259 375 487 603 715> 60 60<-195 -83 33 145 261 373 489 601 717 829> 120 60<-81 31 147 259 375 487 603 715> 180 60<33 145 261 373 489 601 717 829> 240 60<147 259 375 487 603 715> 300 60<261 373 489 601 717 829> 360 60<375 487 603 715> 420 60<489 601 717 829> 480 60<603 715> 540 60<717 829>
LayerCount: 2
Fore
SplineSet
0 715 m 1x00a0
 1 716 l 1
 59 716 l 1
 60 715 l 1
 60 603 l 1
 59 602 l 1
 1 602 l 1
 0 603 l 1
 0 715 l 1x00a0
0 487 m 1
 1 488 l 1
 59 488 l 1
 60 487 l 1
 60 375 l 1
 59 374 l 1
 1 374 l 1x0220
 0 375 l 1
 0 487 l 1
0 259 m 1
 1 260 l 1
 59 260 l 1
 60 259 l 1
 60 147 l 1
 59 146 l 1
 1 146 l 1x0820
 0 147 l 1
 0 259 l 1
0 31 m 1
 1 32 l 1
 59 32 l 1
 60 31 l 1
 60 -81 l 1
 59 -82 l 1
 1 -82 l 1x2020
 0 -81 l 1
 0 31 l 1
0 -197 m 1
 1 -196 l 1
 59 -196 l 1
 60 -197 l 1
 60 -309 l 1
 59 -310 l 1
 1 -310 l 1x8020
 0 -309 l 1
 0 -197 l 1
60 829 m 1x0050
 61 830 l 1
 119 830 l 1
 120 829 l 1
 120 717 l 1
 119 716 l 1
 61 716 l 1
 60 717 l 1
 60 829 l 1x0050
120 716 m 1x0048
 120 716 l 1x0048
60 -83 m 1x4010
 61 -82 l 1
 119 -82 l 1
 120 -83 l 1
 120 -195 l 1
 119 -196 l 1
 61 -196 l 1
 60 -195 l 1
 60 -83 l 1x4010
180 145 m 1x1004
 181 146 l 1
 239 146 l 1
 240 145 l 1
 240 33 l 1
 239 32 l 1
 181 32 l 1
 180 33 l 1
 180 145 l 1x1004
120 31 m 1x2008
 121 32 l 1
 179 32 l 1
 180 31 l 1
 180 -81 l 1
 179 -82 l 1
 121 -82 l 1
 120 -81 l 1
 120 31 l 1x2008
60 145 m 1x1010
 61 146 l 1
 119 146 l 1
 120 145 l 1
 120 33 l 1
 119 32 l 1
 61 32 l 1
 60 33 l 1
 60 145 l 1x1010
300 373 m 1x0401
 301 374 l 1
 359 374 l 1
 360 373 l 1
 360 261 l 1
 359 260 l 1
 301 260 l 1
 300 261 l 1
 300 373 l 1x0401
240 259 m 1x0802
 241 260 l 1
 299 260 l 1
 300 259 l 1
 300 147 l 1
 299 146 l 1
 241 146 l 1
 240 147 l 1
 240 259 l 1x0802
180 373 m 1x0404
 181 374 l 1
 239 374 l 1
 240 373 l 1
 240 261 l 1
 239 260 l 1
 181 260 l 1
 180 261 l 1
 180 373 l 1x0404
120 259 m 1x0808
 121 260 l 1
 179 260 l 1
 180 259 l 1
 180 147 l 1
 179 146 l 1
 121 146 l 1
 120 147 l 1
 120 259 l 1x0808
60 373 m 1x0410
 61 374 l 1
 119 374 l 1
 120 373 l 1
 120 261 l 1
 119 260 l 1
 61 260 l 1
 60 261 l 1
 60 373 l 1x0410
420 601 m 1x010040
 421 602 l 1
 479 602 l 1
 480 601 l 1
 480 489 l 1
 479 488 l 1
 421 488 l 1
 420 489 l 1
 420 601 l 1x010040
360 487 m 1x020080
 361 488 l 1
 419 488 l 1
 420 487 l 1
 420 375 l 1
 419 374 l 1
 361 374 l 1
 360 375 l 1
 360 487 l 1x020080
300 601 m 1x0101
 301 602 l 1
 359 602 l 1
 360 601 l 1
 360 489 l 1
 359 488 l 1
 301 488 l 1
 300 489 l 1
 300 601 l 1x0101
240 487 m 1x0202
 241 488 l 1
 299 488 l 1
 300 487 l 1
 300 375 l 1
 299 374 l 1
 241 374 l 1
 240 375 l 1
 240 487 l 1x0202
180 601 m 1x0104
 181 602 l 1
 239 602 l 1
 240 601 l 1
 240 489 l 1
 239 488 l 1
 181 488 l 1
 180 489 l 1
 180 601 l 1x0104
120 487 m 1x0208
 121 488 l 1
 179 488 l 1
 180 487 l 1
 180 375 l 1
 179 374 l 1
 121 374 l 1
 120 375 l 1
 120 487 l 1x0208
60 601 m 1x0110
 61 602 l 1
 119 602 l 1
 120 601 l 1
 120 489 l 1
 119 488 l 1
 61 488 l 1
 60 489 l 1
 60 601 l 1x0110
540 829 m 1x004010
 541 830 l 1
 599 830 l 1
 600 829 l 1
 600 717 l 1
 599 716 l 1
 541 716 l 1
 540 717 l 1
 540 829 l 1x004010
480 715 m 1x008020
 481 716 l 1
 539 716 l 1
 540 715 l 1
 540 603 l 1
 539 602 l 1
 481 602 l 1
 480 603 l 1
 480 715 l 1x008020
420 829 m 1x004040
 421 830 l 1
 479 830 l 1
 480 829 l 1
 480 717 l 1
 479 716 l 1
 421 716 l 1
 420 717 l 1
 420 829 l 1x004040
360 715 m 1x008080
 361 716 l 1
 419 716 l 1
 420 715 l 1
 420 603 l 1
 419 602 l 1
 361 602 l 1
 360 603 l 1
 360 715 l 1x008080
300 829 m 1x0041
 301 830 l 1
 359 830 l 1
 360 829 l 1
 360 717 l 1
 359 716 l 1
 301 716 l 1
 300 717 l 1
 300 829 l 1x0041
240 715 m 1x0082
 241 716 l 1
 299 716 l 1
 300 715 l 1
 300 603 l 1
 299 602 l 1
 241 602 l 1
 240 603 l 1
 240 715 l 1x0082
180 829 m 1x0044
 181 830 l 1
 239 830 l 1
 240 829 l 1
 240 717 l 1
 239 716 l 1
 181 716 l 1
 180 717 l 1
 180 829 l 1x0044
120 715 m 1x0088
 121 716 l 1
 179 716 l 1
 180 715 l 1
 180 603 l 1
 179 602 l 1
 121 602 l 1
 120 603 l 1
 120 715 l 1x0088
EndSplineSet
EndChar

StartChar: u1FB9D
Encoding: 129949 129949 198
Width: 600
VWidth: -88
Flags: W
HStem: -203 114<541 599> -89 114<481 539> 25 114<421 479 541 599> 139 114<361 419 481 539> 253 114<301 359 421 479 541 599> 367 114<241 299 361 419 481 539> 481 114<181 239 301 359 421 479 541 599> 595 114<121 179 241 299 361 419 481 539> 709 114<61 119 181 239 301 359 421 479 541 599>
VStem: 60 60<710 822> 120 60<596 708> 180 60<482 594 710 822> 240 60<368 480 596 708> 300 60<254 366 482 594 710 822> 360 60<140 252 368 480 596 708> 420 60<26 138 254 366 482 594 710 822> 480 60<-88 24 140 252 368 480 596 708> 540 60<-202 -90 26 138 254 366 482 594 710 822>
LayerCount: 2
Fore
SplineSet
60 822 m 1x00c0
 61 823 l 1
 119 823 l 1
 120 822 l 1
 120 710 l 1
 119 709 l 1
 61 709 l 1
 60 710 l 1
 60 822 l 1x00c0
120 709 m 1x00a0
 120 709 l 1x00a0
540 -90 m 1x800040
 541 -89 l 1
 599 -89 l 1
 600 -90 l 1
 600 -202 l 1
 599 -203 l 1
 541 -203 l 1
 540 -202 l 1
 540 -90 l 1x800040
540 138 m 1
 541 139 l 1
 599 139 l 1
 600 138 l 1
 600 26 l 1
 599 25 l 1
 541 25 l 1x200040
 540 26 l 1
 540 138 l 1
480 24 m 1x400080
 481 25 l 1
 539 25 l 1
 540 24 l 1
 540 -88 l 1
 539 -89 l 1
 481 -89 l 1
 480 -88 l 1
 480 24 l 1x400080
420 138 m 1x2001
 421 139 l 1
 479 139 l 1
 480 138 l 1
 480 26 l 1
 479 25 l 1
 421 25 l 1
 420 26 l 1
 420 138 l 1x2001
540 366 m 1x080040
 541 367 l 1
 599 367 l 1
 600 366 l 1
 600 254 l 1
 599 253 l 1
 541 253 l 1
 540 254 l 1
 540 366 l 1x080040
480 252 m 1x100080
 481 253 l 1
 539 253 l 1
 540 252 l 1
 540 140 l 1
 539 139 l 1
 481 139 l 1
 480 140 l 1
 480 252 l 1x100080
420 366 m 1x0801
 421 367 l 1
 479 367 l 1
 480 366 l 1
 480 254 l 1
 479 253 l 1
 421 253 l 1
 420 254 l 1
 420 366 l 1x0801
360 252 m 1x1002
 361 253 l 1
 419 253 l 1
 420 252 l 1
 420 140 l 1
 419 139 l 1
 361 139 l 1
 360 140 l 1
 360 252 l 1x1002
300 366 m 1x0804
 301 367 l 1
 359 367 l 1
 360 366 l 1
 360 254 l 1
 359 253 l 1
 301 253 l 1
 300 254 l 1
 300 366 l 1x0804
540 594 m 1x020040
 541 595 l 1
 599 595 l 1
 600 594 l 1
 600 482 l 1
 599 481 l 1
 541 481 l 1
 540 482 l 1
 540 594 l 1x020040
480 480 m 1x040080
 481 481 l 1
 539 481 l 1
 540 480 l 1
 540 368 l 1
 539 367 l 1
 481 367 l 1
 480 368 l 1
 480 480 l 1x040080
420 594 m 1x0201
 421 595 l 1
 479 595 l 1
 480 594 l 1
 480 482 l 1
 479 481 l 1
 421 481 l 1
 420 482 l 1
 420 594 l 1x0201
360 480 m 1x0402
 361 481 l 1
 419 481 l 1
 420 480 l 1
 420 368 l 1
 419 367 l 1
 361 367 l 1
 360 368 l 1
 360 480 l 1x0402
300 594 m 1x0204
 301 595 l 1
 359 595 l 1
 360 594 l 1
 360 482 l 1
 359 481 l 1
 301 481 l 1
 300 482 l 1
 300 594 l 1x0204
240 480 m 1x0408
 241 481 l 1
 299 481 l 1
 300 480 l 1
 300 368 l 1
 299 367 l 1
 241 367 l 1
 240 368 l 1
 240 480 l 1x0408
180 594 m 1x0210
 181 595 l 1
 239 595 l 1
 240 594 l 1
 240 482 l 1
 239 481 l 1
 181 481 l 1
 180 482 l 1
 180 594 l 1x0210
540 822 m 1x008040
 541 823 l 1
 599 823 l 1
 600 822 l 1
 600 710 l 1
 599 709 l 1
 541 709 l 1
 540 710 l 1
 540 822 l 1x008040
480 708 m 1x010080
 481 709 l 1
 539 709 l 1
 540 708 l 1
 540 596 l 1
 539 595 l 1
 481 595 l 1
 480 596 l 1
 480 708 l 1x010080
420 822 m 1x0081
 421 823 l 1
 479 823 l 1
 480 822 l 1
 480 710 l 1
 479 709 l 1
 421 709 l 1
 420 710 l 1
 420 822 l 1x0081
360 708 m 1x0102
 361 709 l 1
 419 709 l 1
 420 708 l 1
 420 596 l 1
 419 595 l 1
 361 595 l 1
 360 596 l 1
 360 708 l 1x0102
300 822 m 1x0084
 301 823 l 1
 359 823 l 1
 360 822 l 1
 360 710 l 1
 359 709 l 1
 301 709 l 1
 300 710 l 1
 300 822 l 1x0084
240 708 m 1x0108
 241 709 l 1
 299 709 l 1
 300 708 l 1
 300 596 l 1
 299 595 l 1
 241 595 l 1
 240 596 l 1
 240 708 l 1x0108
180 822 m 1x0090
 181 823 l 1
 239 823 l 1
 240 822 l 1
 240 710 l 1
 239 709 l 1
 181 709 l 1
 180 710 l 1
 180 822 l 1x0090
120 708 m 1x0120
 121 709 l 1
 179 709 l 1
 180 708 l 1
 180 596 l 1
 179 595 l 1
 121 595 l 1
 120 596 l 1
 120 708 l 1x0120
EndSplineSet
EndChar

StartChar: u1FB9E
Encoding: 129950 129950 199
Width: 600
VWidth: -81
Flags: W
HStem: -310 114<1 59 121 179 241 299 361 419 481 539> -196 114<61 119 181 239 301 359 421 479 541 599> -82 114<121 179 241 299 361 419 481 539> 32 114<181 239 301 359 421 479 541 599> 146 114<241 299 361 419 481 539> 260 114<301 359 421 479 541 599> 374 114<361 419 481 539> 488 114<421 479 541 599> 602 114<481 539> 716 114<541 599>
VStem: 0 60<-309 -197> 60 60<-195 -83> 120 60<-309 -197 -81 31> 180 60<-195 -83 33 145> 240 60<-309 -197 -81 31 147 259> 300 60<-195 -83 33 145 261 373> 360 60<-309 -197 -81 31 147 259 375 487> 420 60<-195 -83 33 145 261 373 489 601> 480 60<-309 -197 -81 31 147 259 375 487 603 715> 540 60<-195 -83 33 145 261 373 489 601 717 829>
LayerCount: 2
Fore
SplineSet
0 -197 m 1x8020
 1 -196 l 1
 59 -196 l 1
 60 -197 l 1
 60 -309 l 1
 59 -310 l 1
 1 -310 l 1
 0 -309 l 1
 0 -197 l 1x8020
540 -83 m 1x400010
 541 -82 l 1
 599 -82 l 1
 600 -83 l 1
 600 -195 l 1
 599 -196 l 1
 541 -196 l 1
 540 -195 l 1
 540 -83 l 1x400010
480 -197 m 1x800020
 481 -196 l 1
 539 -196 l 1
 540 -197 l 1
 540 -309 l 1
 539 -310 l 1
 481 -310 l 1
 480 -309 l 1
 480 -197 l 1x800020
420 -83 m 1x400040
 421 -82 l 1
 479 -82 l 1
 480 -83 l 1
 480 -195 l 1
 479 -196 l 1
 421 -196 l 1
 420 -195 l 1
 420 -83 l 1x400040
360 -197 m 1x800080
 361 -196 l 1
 419 -196 l 1
 420 -197 l 1
 420 -309 l 1
 419 -310 l 1
 361 -310 l 1
 360 -309 l 1
 360 -197 l 1x800080
300 -83 m 1x4001
 301 -82 l 1
 359 -82 l 1
 360 -83 l 1
 360 -195 l 1
 359 -196 l 1
 301 -196 l 1
 300 -195 l 1
 300 -83 l 1x4001
240 -197 m 1x8002
 241 -196 l 1
 299 -196 l 1
 300 -197 l 1
 300 -309 l 1
 299 -310 l 1
 241 -310 l 1
 240 -309 l 1
 240 -197 l 1x8002
180 -83 m 1x4004
 181 -82 l 1
 239 -82 l 1
 240 -83 l 1
 240 -195 l 1
 239 -196 l 1
 181 -196 l 1
 180 -195 l 1
 180 -83 l 1x4004
120 -197 m 1x8008
 121 -196 l 1
 179 -196 l 1
 180 -197 l 1
 180 -309 l 1
 179 -310 l 1
 121 -310 l 1
 120 -309 l 1
 120 -197 l 1x8008
60 -83 m 1x4010
 61 -82 l 1
 119 -82 l 1
 120 -83 l 1
 120 -195 l 1
 119 -196 l 1
 61 -196 l 1
 60 -195 l 1
 60 -83 l 1x4010
540 145 m 1x100010
 541 146 l 1
 599 146 l 1
 600 145 l 1
 600 33 l 1
 599 32 l 1
 541 32 l 1
 540 33 l 1
 540 145 l 1x100010
480 31 m 1x200020
 481 32 l 1
 539 32 l 1
 540 31 l 1
 540 -81 l 1
 539 -82 l 1
 481 -82 l 1
 480 -81 l 1
 480 31 l 1x200020
420 145 m 1x100040
 421 146 l 1
 479 146 l 1
 480 145 l 1
 480 33 l 1
 479 32 l 1
 421 32 l 1
 420 33 l 1
 420 145 l 1x100040
360 31 m 1x200080
 361 32 l 1
 419 32 l 1
 420 31 l 1
 420 -81 l 1
 419 -82 l 1
 361 -82 l 1
 360 -81 l 1
 360 31 l 1x200080
300 145 m 1x1001
 301 146 l 1
 359 146 l 1
 360 145 l 1
 360 33 l 1
 359 32 l 1
 301 32 l 1
 300 33 l 1
 300 145 l 1x1001
240 31 m 1x2002
 241 32 l 1
 299 32 l 1
 300 31 l 1
 300 -81 l 1
 299 -82 l 1
 241 -82 l 1
 240 -81 l 1
 240 31 l 1x2002
180 145 m 1x1004
 181 146 l 1
 239 146 l 1
 240 145 l 1
 240 33 l 1
 239 32 l 1
 181 32 l 1
 180 33 l 1
 180 145 l 1x1004
120 31 m 1x2008
 121 32 l 1
 179 32 l 1
 180 31 l 1
 180 -81 l 1
 179 -82 l 1
 121 -82 l 1
 120 -81 l 1
 120 31 l 1x2008
540 373 m 1x040010
 541 374 l 1
 599 374 l 1
 600 373 l 1
 600 261 l 1
 599 260 l 1
 541 260 l 1
 540 261 l 1
 540 373 l 1x040010
480 259 m 1x080020
 481 260 l 1
 539 260 l 1
 540 259 l 1
 540 147 l 1
 539 146 l 1
 481 146 l 1
 480 147 l 1
 480 259 l 1x080020
420 373 m 1x040040
 421 374 l 1
 479 374 l 1
 480 373 l 1
 480 261 l 1
 479 260 l 1
 421 260 l 1
 420 261 l 1
 420 373 l 1x040040
360 259 m 1x080080
 361 260 l 1
 419 260 l 1
 420 259 l 1
 420 147 l 1
 419 146 l 1
 361 146 l 1
 360 147 l 1
 360 259 l 1x080080
300 373 m 1x0401
 301 374 l 1
 359 374 l 1
 360 373 l 1
 360 261 l 1
 359 260 l 1
 301 260 l 1
 300 261 l 1
 300 373 l 1x0401
240 259 m 1x0802
 241 260 l 1
 299 260 l 1
 300 259 l 1
 300 147 l 1
 299 146 l 1
 241 146 l 1
 240 147 l 1
 240 259 l 1x0802
540 601 m 1x010010
 541 602 l 1
 599 602 l 1
 600 601 l 1
 600 489 l 1
 599 488 l 1
 541 488 l 1
 540 489 l 1
 540 601 l 1x010010
480 487 m 1x020020
 481 488 l 1
 539 488 l 1
 540 487 l 1
 540 375 l 1
 539 374 l 1
 481 374 l 1
 480 375 l 1
 480 487 l 1x020020
420 601 m 1x010040
 421 602 l 1
 479 602 l 1
 480 601 l 1
 480 489 l 1
 479 488 l 1
 421 488 l 1
 420 489 l 1
 420 601 l 1x010040
360 487 m 1x020080
 361 488 l 1
 419 488 l 1
 420 487 l 1
 420 375 l 1
 419 374 l 1
 361 374 l 1
 360 375 l 1
 360 487 l 1x020080
540 829 m 1x004010
 541 830 l 1
 599 830 l 1
 600 829 l 1
 600 717 l 1
 599 716 l 1
 541 716 l 1
 540 717 l 1
 540 829 l 1x004010
480 715 m 1x008020
 481 716 l 1
 539 716 l 1
 540 715 l 1
 540 603 l 1
 539 602 l 1
 481 602 l 1
 480 603 l 1
 480 715 l 1x008020
EndSplineSet
EndChar

StartChar: u1FB9F
Encoding: 129951 129951 200
Width: 600
VWidth: -75
Flags: W
HStem: -303 114<1 59 121 179 241 299 361 419 481 539> -189 114<61 119 181 239 301 359 421 479> -75 114<1 59 121 179 241 299 361 419> 39 114<61 119 181 239 301 359> 153 114<1 59 121 179 241 299> 267 114<61 119 181 239> 381 114<1 59 121 179> 495 114<61 119> 609 114<1 59>
VStem: 0 60<-302 -190 -74 38 154 266 382 494 610 722> 60 60<-188 -76 40 152 268 380 496 608> 120 60<-302 -190 -74 38 154 266 382 494> 180 60<-188 -76 40 152 268 380> 240 60<-302 -190 -74 38 154 266> 300 60<-188 -76 40 152> 360 60<-302 -190 -74 38> 420 60<-188 -76> 480 60<-302 -190>
LayerCount: 2
Fore
SplineSet
0 722 m 1x00c0
 1 723 l 1
 59 723 l 1
 60 722 l 1
 60 610 l 1
 59 609 l 1
 1 609 l 1
 0 610 l 1
 0 722 l 1x00c0
0 494 m 1
 1 495 l 1
 59 495 l 1
 60 494 l 1
 60 382 l 1
 59 381 l 1
 1 381 l 1x0240
 0 382 l 1
 0 494 l 1
0 266 m 1
 1 267 l 1
 59 267 l 1
 60 266 l 1
 60 154 l 1
 59 153 l 1
 1 153 l 1x0840
 0 154 l 1
 0 266 l 1
0 38 m 1
 1 39 l 1
 59 39 l 1
 60 38 l 1
 60 -74 l 1
 59 -75 l 1
 1 -75 l 1x2040
 0 -74 l 1
 0 38 l 1
0 -190 m 1
 1 -189 l 1
 59 -189 l 1
 60 -190 l 1
 60 -302 l 1
 59 -303 l 1
 1 -303 l 1x8040
 0 -302 l 1
 0 -190 l 1
480 -190 m 1x800040
 481 -189 l 1
 539 -189 l 1
 540 -190 l 1
 540 -302 l 1
 539 -303 l 1
 481 -303 l 1
 480 -302 l 1
 480 -190 l 1x800040
420 -76 m 1x400080
 421 -75 l 1
 479 -75 l 1
 480 -76 l 1
 480 -188 l 1
 479 -189 l 1
 421 -189 l 1
 420 -188 l 1
 420 -76 l 1x400080
360 -190 m 1x8001
 361 -189 l 1
 419 -189 l 1
 420 -190 l 1
 420 -302 l 1
 419 -303 l 1
 361 -303 l 1
 360 -302 l 1
 360 -190 l 1x8001
300 -76 m 1x4002
 301 -75 l 1
 359 -75 l 1
 360 -76 l 1
 360 -188 l 1
 359 -189 l 1
 301 -189 l 1
 300 -188 l 1
 300 -76 l 1x4002
240 -190 m 1x8004
 241 -189 l 1
 299 -189 l 1
 300 -190 l 1
 300 -302 l 1
 299 -303 l 1
 241 -303 l 1
 240 -302 l 1
 240 -190 l 1x8004
180 -76 m 1x4008
 181 -75 l 1
 239 -75 l 1
 240 -76 l 1
 240 -188 l 1
 239 -189 l 1
 181 -189 l 1
 180 -188 l 1
 180 -76 l 1x4008
120 -190 m 1x8010
 121 -189 l 1
 179 -189 l 1
 180 -190 l 1
 180 -302 l 1
 179 -303 l 1
 121 -303 l 1
 120 -302 l 1
 120 -190 l 1x8010
60 -76 m 1x4020
 61 -75 l 1
 119 -75 l 1
 120 -76 l 1
 120 -188 l 1
 119 -189 l 1
 61 -189 l 1
 60 -188 l 1
 60 -76 l 1x4020
360 38 m 1x2001
 361 39 l 1
 419 39 l 1
 420 38 l 1
 420 -74 l 1
 419 -75 l 1
 361 -75 l 1
 360 -74 l 1
 360 38 l 1x2001
300 152 m 1x1002
 301 153 l 1
 359 153 l 1
 360 152 l 1
 360 40 l 1
 359 39 l 1
 301 39 l 1
 300 40 l 1
 300 152 l 1x1002
240 38 m 1x2004
 241 39 l 1
 299 39 l 1
 300 38 l 1
 300 -74 l 1
 299 -75 l 1
 241 -75 l 1
 240 -74 l 1
 240 38 l 1x2004
180 152 m 1x1008
 181 153 l 1
 239 153 l 1
 240 152 l 1
 240 40 l 1
 239 39 l 1
 181 39 l 1
 180 40 l 1
 180 152 l 1x1008
120 38 m 1x2010
 121 39 l 1
 179 39 l 1
 180 38 l 1
 180 -74 l 1
 179 -75 l 1
 121 -75 l 1
 120 -74 l 1
 120 38 l 1x2010
60 152 m 1x1020
 61 153 l 1
 119 153 l 1
 120 152 l 1
 120 40 l 1
 119 39 l 1
 61 39 l 1
 60 40 l 1
 60 152 l 1x1020
240 266 m 1x0804
 241 267 l 1
 299 267 l 1
 300 266 l 1
 300 154 l 1
 299 153 l 1
 241 153 l 1
 240 154 l 1
 240 266 l 1x0804
180 380 m 1x0408
 181 381 l 1
 239 381 l 1
 240 380 l 1
 240 268 l 1
 239 267 l 1
 181 267 l 1
 180 268 l 1
 180 380 l 1x0408
120 266 m 1x0810
 121 267 l 1
 179 267 l 1
 180 266 l 1
 180 154 l 1
 179 153 l 1
 121 153 l 1
 120 154 l 1
 120 266 l 1x0810
60 380 m 1x0420
 61 381 l 1
 119 381 l 1
 120 380 l 1
 120 268 l 1
 119 267 l 1
 61 267 l 1
 60 268 l 1
 60 380 l 1x0420
120 494 m 1x0210
 121 495 l 1
 179 495 l 1
 180 494 l 1
 180 382 l 1
 179 381 l 1
 121 381 l 1
 120 382 l 1
 120 494 l 1x0210
60 608 m 1x0120
 61 609 l 1
 119 609 l 1
 120 608 l 1
 120 496 l 1
 119 495 l 1
 61 495 l 1
 60 496 l 1
 60 608 l 1x0120
EndSplineSet
EndChar

StartChar: u1FBC5
Encoding: 129989 129989 201
Width: 600
VWidth: 0
Flags: W
HStem: 440 60<100 270 330 500> 641 58<268.311 331.689>
VStem: 208 58<575.926 638.689> 270 60<254 440 500 530.009> 334 58<575.926 638.689>
CounterMasks: 1 38
LayerCount: 2
Fore
SplineSet
266 607 m 4
 266 588 281 573 300 573 c 4
 319 573 334 588 334 607 c 4
 334 626 319 641 300 641 c 4
 281 641 266 626 266 607 c 4
208 607 m 4
 208 658 249 699 300 699 c 4
 351 699 392 658 392 607 c 4
 392 567 366 532 330 520 c 5
 330 500 l 5
 500 500 l 5
 500 440 l 5
 330 440 l 5
 330 254 l 5
 461 66 l 5
 412 32 l 5
 300 193 l 5
 188 32 l 5
 139 66 l 5
 270 254 l 5
 270 440 l 5
 100 440 l 5
 100 500 l 5
 270 500 l 5
 270 520 l 5
 234 532 208 567 208 607 c 4
EndSplineSet
Validated: 1
EndChar

StartChar: u1FBC6
Encoding: 129990 129990 202
Width: 600
VWidth: 0
Flags: W
HStem: 641 58<268.311 331.689>
VStem: 208 58<575.926 638.689> 270 60<254 431 505 530.009> 334 58<575.926 638.689>
CounterMasks: 1 70
LayerCount: 2
Fore
SplineSet
208 607 m 4
 208 658 249 699 300 699 c 4
 351 699 392 658 392 607 c 4
 392 567 366 532 330 520 c 5
 330 505 l 5
 481 612 l 5
 516 563 l 5
 330 431 l 5
 330 254 l 5
 461 66 l 5
 412 32 l 5
 300 193 l 5
 188 32 l 5
 139 66 l 5
 270 254 l 5
 270 431 l 5
 84 563 l 5
 118 612 l 5
 270 504 l 5
 270 520 l 5
 234 532 208 567 208 607 c 4
266 607 m 4
 266 588 281 573 300 573 c 4
 319 573 334 588 334 607 c 4
 334 626 319 641 300 641 c 4
 281 641 266 626 266 607 c 4
EndSplineSet
Validated: 1
EndChar

StartChar: u1FBC7
Encoding: 129991 129991 203
Width: 600
VWidth: 0
Flags: W
HStem: 641 58<268.311 331.689>
VStem: 208 58<575.926 638.689> 270 60<254 388 505 530.009> 334 58<575.926 638.689>
CounterMasks: 1 70
LayerCount: 2
Fore
SplineSet
208 607 m 4
 208 658 249 699 300 699 c 4
 351 699 392 658 392 607 c 4
 392 567 366 532 330 520 c 5
 330 505 l 5
 481 612 l 5
 516 563 l 5
 330 431 l 5
 330 254 l 5
 461 66 l 5
 412 32 l 5
 300 193 l 5
 188 32 l 5
 139 66 l 5
 270 254 l 5
 270 388 l 5
 120 276 l 5
 85 325 l 5
 270 462 l 5
 270 520 l 5
 234 532 208 567 208 607 c 4
266 607 m 4
 266 588 281 573 300 573 c 4
 319 573 334 588 334 607 c 4
 334 626 319 641 300 641 c 4
 281 641 266 626 266 607 c 4
EndSplineSet
Validated: 1
EndChar

StartChar: u1FBC8
Encoding: 129992 129992 204
Width: 600
VWidth: 0
Flags: W
HStem: 641 58<268.311 331.689>
VStem: 208 58<575.926 638.689> 270 60<254 388 504 530.009> 334 58<575.926 638.689>
CounterMasks: 1 70
LayerCount: 2
Fore
SplineSet
208 607 m 4
 208 658 249 699 300 699 c 4
 351 699 392 658 392 607 c 4
 392 567 366 532 330 520 c 5
 330 462 l 5
 515 325 l 5
 480 276 l 5
 330 388 l 5
 330 254 l 5
 461 66 l 5
 412 32 l 5
 300 193 l 5
 188 32 l 5
 139 66 l 5
 270 254 l 5
 270 431 l 5
 84 563 l 5
 118 612 l 5
 270 504 l 5
 270 520 l 5
 234 532 208 567 208 607 c 4
266 607 m 4
 266 588 281 573 300 573 c 4
 319 573 334 588 334 607 c 4
 334 626 319 641 300 641 c 4
 281 641 266 626 266 607 c 4
EndSplineSet
Validated: 1
EndChar

StartChar: u1FBC9
Encoding: 129993 129993 205
Width: 600
VWidth: 0
Flags: W
HStem: 30 170<200 260 340 400> 156 44<260 340> 440 60<100 270 330 500> 641 58<268.311 331.689>
VStem: 200 60<30 156> 208 58<575.926 638.689> 270 60<500 530.009> 334 58<575.926 638.689> 340 60<30 156>
LayerCount: 2
Fore
SplineSet
300 370 m 25xba80
 200 200 l 25
 400 200 l 25
 300 370 l 25xba80
208 607 m 4x76
 208 658 249 699 300 699 c 4
 351 699 392 658 392 607 c 4x77
 392 567 366 532 330 520 c 5
 330 500 l 5
 500 500 l 5
 500 440 l 5
 330 440 l 5
 491 156 l 5
 400 156 l 5x7280
 400 30 l 5
 340 30 l 5xb280
 340 156 l 5
 260 156 l 5x7a80
 260 30 l 5
 200 30 l 5xba80
 200 156 l 5x7a80
 109 156 l 5
 270 440 l 5
 100 440 l 5
 100 500 l 5
 270 500 l 5
 270 520 l 5
 234 532 208 567 208 607 c 4x76
266 607 m 4
 266 588 281 573 300 573 c 4
 319 573 334 588 334 607 c 4
 334 626 319 641 300 641 c 4
 281 641 266 626 266 607 c 4
EndSplineSet
Validated: 1
EndChar

StartChar: u1FBC0
Encoding: 129984 129984 206
Width: 600
VWidth: 0
Flags: W
HStem: 62 38<94.1325 183.029 416.973 506.106> 546 36<96.2132 180.943 421.016 504.049>
VStem: 40 37<117.93 204.213 441.785 527.846> 523 37<117.93 205.259 442.031 527.846>
LayerCount: 2
Fore
SplineSet
77 484 m 0
 77 466 85 450 98 439 c 2
 214 323 l 1
 98 207 l 2
 85 196 77 179 77 161 c 0
 77 127 105 100 139 100 c 0
 157 100 173 107 184 120 c 2
 300 236 l 1
 416 120 l 2
 427 107 444 100 462 100 c 0
 496 100 523 127 523 161 c 0
 523 179 516 196 503 207 c 2
 387 323 l 1
 493 429 l 2
 506 440 523 466 523 484 c 0
 523 518 496 546 462 546 c 0
 444 546 417 528 406 515 c 2
 300 409 l 1
 184 525 l 2
 173 538 157 546 139 546 c 0
 105 546 77 518 77 484 c 0
40 490 m 0
 40 541 81 582 132 582 c 0
 160 582 184 570 201 551 c 2
 300 452 l 1
 399 551 l 2
 416 570 440 582 468 582 c 0
 519 582 560 541 560 490 c 0
 560 462 548 438 529 421 c 2
 430 322 l 1
 529 223 l 2
 548 206 560 182 560 154 c 0
 560 103 519 62 468 62 c 0
 440 62 416 74 399 93 c 2
 300 192 l 1
 201 93 l 2
 184 74 160 62 132 62 c 0
 81 62 40 103 40 154 c 0
 40 182 52 206 71 223 c 2
 170 322 l 1
 71 421 l 2
 52 438 40 462 40 490 c 0
EndSplineSet
Validated: 1
EndChar

StartChar: u1FBC1
Encoding: 129985 129985 207
Width: 600
VWidth: 0
Flags: W
HStem: -80 80<326.277 600> 345 85<320 394.431> 450 80<455.404 600> 630 80<326.277 600>
VStem: 150 170<-110 -60 9.01758 347.859 430 620.982 690 740>
LayerCount: 2
Fore
SplineSet
150 770 m 5
 320 740 l 5
 320 690 l 5
 329 699 344 706 371 710 c 6
 600 710 l 5
 600 630 l 5
 371 630 l 5
 337 624 327 612 320 599 c 5
 320 430 l 5
 341 431 362 432 376 438 c 4
 409 452 440 525 481 530 c 5
 600 530 l 5
 600 450 l 5
 481 450 l 5
 454 445 426 367 393 357 c 4
 377 352 349 349 320 345 c 5
 320 31 l 5
 327 18 337 6 371 0 c 5
 600 0 l 5
 600 -80 l 5
 371 -80 l 6
 344 -76 329 -69 320 -60 c 5
 320 -110 l 5
 150 -140 l 5
 150 770 l 5
EndSplineSet
Validated: 1
EndChar

StartChar: u1FBB2
Encoding: 129970 129970 208
Width: 600
VWidth: 0
Flags: W
HStem: 190 55<368 440 500 600> 441 60<290 470 530 600> 642 58<468.311 531.689>
VStem: 408 58<576.926 639.689> 470 60<501 531.009> 534 58<576.926 639.689>
CounterMasks: 1 1c
LayerCount: 2
Fore
SplineSet
466 608 m 0
 466 589 481 574 500 574 c 0
 519 574 534 589 534 608 c 0
 534 627 519 642 500 642 c 0
 481 642 466 627 466 608 c 0
408 608 m 0
 408 659 449 700 500 700 c 0
 551 700 592 659 592 608 c 0
 592 568 566 533 530 521 c 1
 530 501 l 1
 600 501 l 1
 600 441 l 1
 530 441 l 1
 500 245 l 1
 600 245 l 5
 600 190 l 5
 368 190 l 1
 244 48 l 1
 196 78 l 1
 339 245 l 1
 440 245 l 1
 470 441 l 1
 290 441 l 1
 176 331 l 1
 136 373 l 1
 280 501 l 1
 470 501 l 1
 470 521 l 1
 434 533 408 568 408 608 c 0
EndSplineSet
Validated: 1
EndChar

StartChar: u1FBB3
Encoding: 129971 129971 209
Width: 600
VWidth: 0
Flags: W
HStem: 441 60<0 20>
VStem: 0 184
LayerCount: 2
Fore
SplineSet
41 245 m 1
 184 78 l 1
 136 48 l 1
 12 190 l 1
 0 190 l 5
 0 245 l 5
 41 245 l 1
0 441 m 1
 0 501 l 1
 20 501 l 1
 134 611 l 1
 174 569 l 1
 30 441 l 1
 0 441 l 1
EndSplineSet
Validated: 1
EndChar

StartChar: u1FBC2
Encoding: 129986 129986 210
Width: 600
VWidth: 0
Flags: W
HStem: -80 80<0 352.662> 60 80<26.0131 370> 190 80<96.0131 393> 320 80<167.207 405> 450 80<0 179 275.6 410 497 600> 630 80<0 141.854 232 600>
VStem: 179 102<530 589.11> 409 88<409.708 450>
LayerCount: 2
Fore
SplineSet
0 0 m 5
 315 0 l 6
 348 0 360 30 370 60 c 5
 70 60 l 6
 44 60 21 73 21 99 c 4
 21 126 44 140 70 140 c 6
 385 140 l 5
 389 170 391 160 393 190 c 5
 140 190 l 6
 114 190 91 203 91 229 c 4
 91 256 114 270 140 270 c 6
 397 270 l 5
 401 281 403 299 405 320 c 5
 210 320 l 6
 184 320 161 333 161 359 c 4
 161 386 191 400 210 400 c 6
 409 400 l 5
 409 423 410 442 410 450 c 5
 0 450 l 5
 0 530 l 5
 179 530 l 5
 172 571 155 607 114 630 c 5
 0 630 l 5
 0 710 l 5
 600 710 l 5
 600 630 l 5
 232 630 l 5
 259 609 271 571 281 530 c 5
 600 530 l 5
 600 450 l 5
 497 450 l 5
 497 440 497 431 497 421 c 4
 497 180 472 -56 361 -80 c 5
 0 -80 l 5
 0 0 l 5
EndSplineSet
Validated: 1
EndChar

StartChar: u1FBC3
Encoding: 129987 129987 211
Width: 600
VWidth: 0
Flags: W
HStem: 450 80<0 364.353> 630 80<0 361.341>
VStem: 369 93<537.365 621.584>
LayerCount: 2
Fore
SplineSet
311 710 m 1
 347 708 460 701 462 582 c 1
 462 484 391 455 343 452 c 0
 324 451 304 450 282 450 c 1
 194 450 89 450 0 450 c 1
 0 530 l 1
 320 530 l 2
 340 530 369 533 369 575 c 0
 369 576 369 576 369 577 c 1
 368 626 335 630 305 630 c 0
 299 630 293 630 288 630 c 2
 0 630 l 1
 0 710 l 1
 301 710 l 1
 311 710 l 1
EndSplineSet
Validated: 1
EndChar
